<svg width="25" height="30" viewBox="0 0 25 30" fill="none" xmlns="http://www.w3.org/2000/svg">
<g clip-path="url(#clip0_1162_116)">
<path fill-rule="evenodd" clip-rule="evenodd" d="M3.56849 0H20.6314C22.5941 0 24.2 1.61164 24.2 3.58148V9.62959C23.7117 8.92254 23.1119 8.32944 22.4666 7.87058C17.9287 4.64439 12.9457 7.18277 8.70735 8.76317C7.03516 9.38671 3.16096 10.6373 1.65663 9.15189C0.549801 6.52541 7.58576 6.24629 9.55612 5.788C12.7651 5.04181 16.151 4.25986 17.4192 1.97564C15.8789 2.96946 15.9741 3.2687 13.5744 4.05081C11.923 4.58915 10.1812 4.80916 8.33135 4.90748C6.0629 5.02788 2.01851 4.81246 0 6.53765V3.58148C0 1.61172 1.60583 0 3.56849 0ZM24.2 17.6094C20.9883 24.538 18.5109 23.1032 3.56849 29.8991C2.78046 30.2575 1.90753 29.5858 1.288 29.0667L2.42572 28.6195C4.26417 27.7288 3.18085 25.8025 10.884 23.2686C14.4158 22.1067 17.9351 20.9041 20.2095 18.7827C22.7709 16.3938 24.705 13.4004 22.0408 9.26592C23.895 10.3814 24.8525 13.7985 23.4956 16.5097C22.3722 18.7544 20.4793 20.2071 18.3302 21.5031C14.8283 23.6149 11.1593 24.196 7.63343 25.9526C6.70233 26.4163 5.09031 27.2087 4.55151 28.1771C7.30412 26.6915 6.79621 26.4825 10.639 25.3236C12.963 24.6229 15.1034 24.0361 17.2383 23.113C19.7001 22.0488 22.5973 20.1717 24.2 17.6095V17.6094ZM0 20.8384V11.3856C1.27589 12.4067 3.39854 12.9373 5.56605 12.8575C10.2443 12.6855 14.1149 10.9281 15.8961 11.0356C17.9712 11.161 18.4034 13.0981 17.1128 14.322C14.5879 16.7163 7.77489 17.013 3.33612 18.937C2.04362 19.4974 1.02241 20.1011 0 20.8384L0 20.8384Z" fill="white"/>
</g>
<defs>
<clipPath id="clip0_1162_116">
<rect width="24.2" height="30" fill="white"/>
</clipPath>
</defs>
</svg>
