<svg width="142" height="42" viewBox="0 0 142 42" fill="none" xmlns="http://www.w3.org/2000/svg">
<path fill-rule="evenodd" clip-rule="evenodd" d="M5.05144 0.0771484H28.9382C31.6857 0.0771484 33.9339 2.32534 33.9339 5.07292V13.5093C33.2503 12.523 32.4107 11.6956 31.5072 11.0559C25.1545 6.55574 18.1787 10.0966 12.2456 12.3009C9.90466 13.1706 4.48124 14.915 2.37529 12.8432C0.825739 9.17957 10.6757 8.79015 13.4339 8.15103C17.9262 7.11027 22.666 6.01938 24.4415 2.83319C22.2854 4.21951 22.4185 4.63682 19.0591 5.72771C16.7473 6.47867 14.3089 6.78539 11.7193 6.92261C8.54372 7.09053 2.88188 6.79008 0.0559774 9.19649V5.07292C0.0559774 2.32534 2.30417 0.0771484 5.05175 0.0771484L5.05144 0.0771484ZM33.9336 24.64C29.4376 34.3044 25.9694 32.3031 5.05144 41.7824C3.94833 42.2825 2.72618 41.3454 1.85898 40.6214L3.45176 39.9976C6.02547 38.7554 4.50881 36.0683 15.2927 32.5337C20.2371 30.913 25.1636 29.2354 28.3476 26.2766C31.9332 22.9444 34.641 18.7692 30.9113 13.0021C33.5069 14.5582 34.8475 19.3243 32.948 23.1064C31.3756 26.2375 28.7254 28.2638 25.7169 30.0715C20.8145 33.0174 15.6783 33.8279 10.7421 36.2779C9.43848 36.9248 7.18183 38.0298 6.42773 39.3807C10.2812 37.3086 9.57006 37.0169 14.9499 35.4003C18.2032 34.4229 21.1998 33.6046 24.1883 32.3169C27.6345 30.8325 31.6904 28.214 33.9339 24.6403L33.9336 24.64ZM0.0556641 29.1442V15.9586C1.84175 17.3828 4.81333 18.1228 7.84758 18.0119C14.3967 17.772 19.8151 15.3207 22.3089 15.4705C25.214 15.6453 25.819 18.3472 24.0123 20.0546C20.4777 23.3943 10.9398 23.8082 4.72593 26.4919C2.91666 27.2735 1.4871 28.1156 0.0556641 29.1442Z" fill="#C40A0D"/>
<path d="M52.8062 27.3046C51.4848 27.3046 50.2142 27.0928 48.9945 26.6693C47.7917 26.2288 46.8599 25.6698 46.1992 24.9921L46.9361 23.5437C47.563 24.1535 48.4015 24.6702 49.4519 25.0938C50.5191 25.5003 51.6372 25.7036 52.8062 25.7036C53.9243 25.7036 54.8306 25.5681 55.5252 25.2971C56.2367 25.0091 56.7534 24.6279 57.0753 24.1535C57.4141 23.6792 57.5835 23.154 57.5835 22.578C57.5835 21.8835 57.3802 21.3244 56.9736 20.9009C56.584 20.4774 56.0673 20.147 55.4235 19.9099C54.7798 19.6557 54.0683 19.4355 53.289 19.2492C52.5097 19.0628 51.7304 18.868 50.9511 18.6647C50.1719 18.4445 49.4519 18.1565 48.7912 17.8007C48.1474 17.445 47.6223 16.9791 47.2157 16.4031C46.826 15.8102 46.6312 15.0393 46.6312 14.0907C46.6312 13.2097 46.8599 12.405 47.3173 11.6766C47.7917 10.9312 48.5116 10.3383 49.4773 9.89779C50.4429 9.44039 51.6796 9.21168 53.1873 9.21168C54.1868 9.21168 55.1779 9.35568 56.1605 9.64368C57.143 9.91473 57.9901 10.2959 58.7016 10.7872L58.0663 12.2865C57.304 11.7782 56.4908 11.4055 55.6268 11.1684C54.7798 10.9312 53.9581 10.8126 53.1619 10.8126C52.0946 10.8126 51.2137 10.9566 50.5191 11.2446C49.8246 11.5326 49.3079 11.9222 48.9691 12.4135C48.6472 12.8879 48.4862 13.43 48.4862 14.0398C48.4862 14.7344 48.6811 15.2935 49.0707 15.717C49.4773 16.1405 50.0024 16.4709 50.6462 16.708C51.3069 16.9452 52.0269 17.157 52.8062 17.3433C53.5854 17.5297 54.3563 17.733 55.1186 17.9532C55.8979 18.1734 56.6094 18.4614 57.2531 18.8172C57.9138 19.156 58.439 19.6134 58.8286 20.1894C59.2352 20.7654 59.4385 21.5192 59.4385 22.451C59.4385 23.315 59.2013 24.1197 58.727 24.8651C58.2527 25.5935 57.5242 26.1865 56.5416 26.6439C55.576 27.0843 54.3308 27.3046 52.8062 27.3046Z" fill="black"/>
<path d="M68.5926 27.2791C67.305 27.2791 66.1446 26.9911 65.1112 26.4152C64.0947 25.8222 63.2901 25.0175 62.6971 24.0011C62.1042 22.9677 61.8077 21.7903 61.8077 20.4689C61.8077 19.1306 62.1042 17.9532 62.6971 16.9367C63.2901 15.9203 64.0947 15.1241 65.1112 14.5481C66.1277 13.9721 67.2881 13.6841 68.5926 13.6841C69.9139 13.6841 71.0829 13.9721 72.0993 14.5481C73.1327 15.1241 73.9374 15.9203 74.5134 16.9367C75.1063 17.9532 75.4028 19.1306 75.4028 20.4689C75.4028 21.7903 75.1063 22.9677 74.5134 24.0011C73.9374 25.0175 73.1327 25.8222 72.0993 26.4152C71.0659 26.9911 69.897 27.2791 68.5926 27.2791ZM68.5926 25.6782C69.5582 25.6782 70.4137 25.4665 71.1591 25.0429C71.9045 24.6025 72.489 23.9926 72.9125 23.2133C73.3529 22.4171 73.5732 21.5023 73.5732 20.4689C73.5732 19.4186 73.3529 18.5038 72.9125 17.7245C72.489 16.9452 71.9045 16.3438 71.1591 15.9203C70.4137 15.4798 69.5667 15.2596 68.618 15.2596C67.6693 15.2596 66.8222 15.4798 66.0768 15.9203C65.3314 16.3438 64.7385 16.9452 64.298 17.7245C63.8576 18.5038 63.6373 19.4186 63.6373 20.4689C63.6373 21.5023 63.8576 22.4171 64.298 23.2133C64.7385 23.9926 65.3314 24.6025 66.0768 25.0429C66.8222 25.4665 67.6608 25.6782 68.5926 25.6782Z" fill="black"/>
<path d="M77.1042 32.2089C76.562 32.2089 76.0453 32.1327 75.5541 31.9802C75.0458 31.8447 74.6223 31.6329 74.2835 31.345L74.9188 29.9727C75.4609 30.4301 76.1555 30.6588 77.0025 30.6588C77.714 30.6588 78.2561 30.4471 78.6288 30.0236C79.0185 29.6 79.2133 28.9732 79.2133 28.1431V13.8111H81.0175V28.1431C81.0175 29.3798 80.6787 30.3624 80.001 31.0908C79.3403 31.8362 78.3747 32.2089 77.1042 32.2089ZM80.1281 10.8634C79.7554 10.8634 79.442 10.7364 79.1879 10.4823C78.9338 10.2281 78.8067 9.9232 78.8067 9.56744C78.8067 9.21168 78.9338 8.91522 79.1879 8.67804C79.442 8.42393 79.7554 8.29688 80.1281 8.29688C80.5008 8.29688 80.8142 8.41546 81.0683 8.65263C81.3224 8.88981 81.4495 9.18627 81.4495 9.54203C81.4495 9.91473 81.3224 10.2281 81.0683 10.4823C80.8311 10.7364 80.5177 10.8634 80.1281 10.8634Z" fill="black"/>
<path d="M91.4975 27.2791C90.21 27.2791 89.0495 26.9911 88.0161 26.4152C86.9997 25.8222 86.195 25.0175 85.6021 24.0011C85.0091 22.9677 84.7127 21.7903 84.7127 20.4689C84.7127 19.1306 85.0091 17.9532 85.6021 16.9367C86.195 15.9203 86.9997 15.1241 88.0161 14.5481C89.0326 13.9721 90.193 13.6841 91.4975 13.6841C92.8189 13.6841 93.9878 13.9721 95.0042 14.5481C96.0376 15.1241 96.8423 15.9203 97.4183 16.9367C98.0113 17.9532 98.3077 19.1306 98.3077 20.4689C98.3077 21.7903 98.0113 22.9677 97.4183 24.0011C96.8423 25.0175 96.0376 25.8222 95.0042 26.4152C93.9709 26.9911 92.8019 27.2791 91.4975 27.2791ZM91.4975 25.6782C92.4631 25.6782 93.3186 25.4665 94.064 25.0429C94.8094 24.6025 95.3939 23.9926 95.8174 23.2133C96.2579 22.4171 96.4781 21.5023 96.4781 20.4689C96.4781 19.4186 96.2579 18.5038 95.8174 17.7245C95.3939 16.9452 94.8094 16.3438 94.064 15.9203C93.3186 15.4798 92.4716 15.2596 91.5229 15.2596C90.5742 15.2596 89.7272 15.4798 88.9818 15.9203C88.2364 16.3438 87.6434 16.9452 87.203 17.7245C86.7625 18.5038 86.5423 19.4186 86.5423 20.4689C86.5423 21.5023 86.7625 22.4171 87.203 23.2133C87.6434 23.9926 88.2364 24.6025 88.9818 25.0429C89.7272 25.4665 90.5657 25.6782 91.4975 25.6782Z" fill="black"/>
<path d="M107.505 27.2791C106.37 27.2791 105.379 27.0674 104.532 26.6439C103.685 26.2203 103.025 25.5851 102.55 24.738C102.093 23.891 101.864 22.8322 101.864 21.5616V13.8111H103.668V21.3583C103.668 22.7813 104.016 23.8571 104.71 24.5855C105.422 25.2971 106.413 25.6528 107.683 25.6528C108.615 25.6528 109.42 25.4665 110.097 25.0938C110.792 24.7041 111.317 24.1451 111.673 23.4166C112.046 22.6882 112.232 21.8157 112.232 20.7993V13.8111H114.036V27.1521H112.308V23.4929L112.588 24.1535C112.164 25.1361 111.503 25.9069 110.606 26.466C109.725 27.0081 108.691 27.2791 107.505 27.2791Z" fill="black"/>
<path d="M119.064 27.1521V13.8111H120.792V17.445L120.614 16.8097C120.987 15.7932 121.614 15.0224 122.495 14.4972C123.376 13.9551 124.469 13.6841 125.773 13.6841V15.4375C125.705 15.4375 125.637 15.4375 125.57 15.4375C125.502 15.4205 125.434 15.412 125.366 15.412C123.96 15.412 122.859 15.844 122.063 16.708C121.267 17.5551 120.869 18.7663 120.869 20.3418V27.1521H119.064Z" fill="black"/>
<path d="M135.875 13.6841C136.96 13.6841 137.908 13.8958 138.721 14.3194C139.552 14.7259 140.195 15.3528 140.653 16.1998C141.127 17.0468 141.364 18.1141 141.364 19.4016V27.1521H139.56V19.5795C139.56 18.1734 139.204 17.1146 138.493 16.4031C137.798 15.6746 136.816 15.3104 135.545 15.3104C134.596 15.3104 133.766 15.5052 133.055 15.8949C132.36 16.2676 131.818 16.8181 131.428 17.5466C131.056 18.2581 130.869 19.1221 130.869 20.1386V27.1521H129.065V13.8111H130.793V17.4704L130.514 16.7843C130.937 15.8186 131.615 15.0648 132.546 14.5227C133.478 13.9636 134.588 13.6841 135.875 13.6841Z" fill="black"/>
</svg>
