<svg width="126" height="38" viewBox="0 0 126 38" fill="none" xmlns="http://www.w3.org/2000/svg">
<path fill-rule="evenodd" clip-rule="evenodd" d="M5.2213 0.539063H26.2978C28.7222 0.539063 30.7059 2.52276 30.7059 4.9471V12.391C30.1027 11.5207 29.3618 10.7907 28.5646 10.2262C22.9593 6.25547 16.8042 9.37974 11.5691 11.3247C9.50355 12.0921 4.71819 13.6313 2.85999 11.8032C1.49274 8.57061 10.1839 8.22701 12.6176 7.66308C16.5814 6.74476 20.7636 5.78221 22.3301 2.97086C20.4277 4.19409 20.5452 4.5623 17.581 5.52485C15.5412 6.18747 13.3897 6.4581 11.1047 6.57917C8.30272 6.72734 3.30698 6.46224 0.813539 8.58554V4.9471C0.813539 2.52276 2.79724 0.539062 5.22157 0.539062L5.2213 0.539063ZM30.7056 22.2121C26.7385 30.7396 23.6783 28.9738 5.2213 37.3379C4.24797 37.779 3.1696 36.9522 2.40442 36.3134L3.80982 35.763C6.08073 34.6669 4.74251 32.296 14.2577 29.1772C18.6204 27.7472 22.9673 26.2669 25.7767 23.6562C28.9405 20.7161 31.3298 17.032 28.0388 11.9434C30.3291 13.3165 31.5119 17.5219 29.8359 20.859C28.4485 23.6217 26.1101 25.4097 23.4555 27.0047C19.1299 29.604 14.598 30.3192 10.2425 32.4809C9.09222 33.0517 7.10106 34.0267 6.43568 35.2187C9.83583 33.3904 9.20832 33.133 13.9553 31.7066C16.8258 30.8441 19.4699 30.1221 22.1068 28.9859C25.1476 27.6762 28.7263 25.3657 30.7059 22.2124L30.7056 22.2121ZM0.813263 26.1865V14.5521C2.38922 15.8088 5.01121 16.4617 7.68848 16.3639C13.4671 16.1521 18.248 13.9893 20.4484 14.1214C23.0118 14.2757 23.5456 16.6597 21.9514 18.1662C18.8327 21.113 10.4169 21.4782 4.93408 23.8462C3.33767 24.5359 2.0763 25.2789 0.813263 26.1865Z" fill="#C40A0D"/>
<path d="M47.3581 24.5625C46.1921 24.5625 45.071 24.3756 43.9948 24.002C42.9335 23.6133 42.1114 23.12 41.5284 22.5221L42.1786 21.2441C42.7317 21.7822 43.4716 22.2381 44.3984 22.6118C45.3401 22.9706 46.3267 23.1499 47.3581 23.1499C48.3446 23.1499 49.1443 23.0303 49.7572 22.7912C50.385 22.5371 50.8409 22.2007 51.1249 21.7822C51.4239 21.3637 51.5733 20.9003 51.5733 20.392C51.5733 19.7792 51.394 19.2859 51.0352 18.9122C50.6914 18.5385 50.2355 18.247 49.6675 18.0378C49.0995 17.8135 48.4717 17.6192 47.7841 17.4548C47.0965 17.2904 46.4089 17.1185 45.7213 16.9391C45.0337 16.7448 44.3984 16.4907 43.8154 16.1768C43.2474 15.8629 42.784 15.4518 42.4253 14.9436C42.0815 14.4204 41.9096 13.7403 41.9096 12.9032C41.9096 12.1259 42.1114 11.4159 42.515 10.7731C42.9335 10.1154 43.5688 9.59223 44.4208 9.20359C45.2728 8.8 46.364 8.5982 47.6944 8.5982C48.5763 8.5982 49.4508 8.72526 50.3177 8.97937C51.1847 9.21853 51.9321 9.55486 52.5599 9.98835L51.9994 11.3112C51.3267 10.8628 50.6092 10.5339 49.8469 10.3247C49.0995 10.1154 48.3745 10.0108 47.672 10.0108C46.7302 10.0108 45.953 10.1378 45.3401 10.3919C44.7272 10.6461 44.2713 10.9899 43.9724 11.4233C43.6884 11.8419 43.5464 12.3202 43.5464 12.8583C43.5464 13.4712 43.7183 13.9645 44.0621 14.3382C44.4208 14.7119 44.8842 15.0034 45.4522 15.2126C46.0352 15.4219 46.6705 15.6087 47.3581 15.7732C48.0457 15.9376 48.7258 16.117 49.3984 16.3113C50.086 16.5056 50.7138 16.7597 51.2819 17.0736C51.8648 17.3726 52.3282 17.7762 52.672 18.2844C53.0308 18.7926 53.2101 19.4578 53.2101 20.2799C53.2101 21.0423 53.0009 21.7523 52.5823 22.41C52.1638 23.0528 51.521 23.5759 50.6541 23.9795C49.802 24.3682 48.7034 24.5625 47.3581 24.5625Z" fill="white"/>
<path d="M61.2872 24.5401C60.1512 24.5401 59.1273 24.286 58.2154 23.7777C57.3186 23.2546 56.6085 22.5445 56.0854 21.6477C55.5622 20.7358 55.3006 19.697 55.3006 18.531C55.3006 17.3502 55.5622 16.3113 56.0854 15.4144C56.6085 14.5175 57.3186 13.815 58.2154 13.3068C59.1123 12.7985 60.1362 12.5444 61.2872 12.5444C62.4532 12.5444 63.4846 12.7985 64.3814 13.3068C65.2932 13.815 66.0033 14.5175 66.5115 15.4144C67.0347 16.3113 67.2962 17.3502 67.2962 18.531C67.2962 19.697 67.0347 20.7358 66.5115 21.6477C66.0033 22.5445 65.2932 23.2546 64.3814 23.7777C63.4696 24.286 62.4382 24.5401 61.2872 24.5401ZM61.2872 23.1275C62.1392 23.1275 62.8941 22.9407 63.5518 22.567C64.2095 22.1783 64.7252 21.6402 65.0989 20.9526C65.4876 20.25 65.6819 19.4429 65.6819 18.531C65.6819 17.6043 65.4876 16.7971 65.0989 16.1095C64.7252 15.4219 64.2095 14.8912 63.5518 14.5175C62.8941 14.1289 62.1467 13.9346 61.3096 13.9346C60.4726 13.9346 59.7252 14.1289 59.0675 14.5175C58.4098 14.8912 57.8866 15.4219 57.4979 16.1095C57.1093 16.7971 56.915 17.6043 56.915 18.531C56.915 19.4429 57.1093 20.25 57.4979 20.9526C57.8866 21.6402 58.4098 22.1783 59.0675 22.567C59.7252 22.9407 60.4651 23.1275 61.2872 23.1275Z" fill="white"/>
<path d="M68.7975 28.8899C68.3191 28.8899 67.8632 28.8226 67.4297 28.6881C66.9813 28.5685 66.6076 28.3817 66.3086 28.1276L66.8692 26.9168C67.3475 27.3204 67.9604 27.5222 68.7078 27.5222C69.3356 27.5222 69.8139 27.3353 70.1428 26.9616C70.4866 26.5879 70.6585 26.0349 70.6585 25.3024V12.6565H72.2504V25.3024C72.2504 26.3936 71.9514 27.2606 71.3535 27.9033C70.7706 28.561 69.9185 28.8899 68.7975 28.8899ZM71.4656 10.0556C71.1368 10.0556 70.8603 9.94351 70.636 9.71929C70.4118 9.49507 70.2997 9.22601 70.2997 8.9121C70.2997 8.5982 70.4118 8.33661 70.636 8.12734C70.8603 7.90312 71.1368 7.79102 71.4656 7.79102C71.7945 7.79102 72.071 7.89565 72.2953 8.10492C72.5195 8.31419 72.6316 8.57578 72.6316 8.88968C72.6316 9.21854 72.5195 9.49507 72.2953 9.71929C72.086 9.94351 71.8094 10.0556 71.4656 10.0556Z" fill="white"/>
<path d="M81.4975 24.5401C80.3614 24.5401 79.3375 24.286 78.4257 23.7777C77.5288 23.2546 76.8188 22.5445 76.2956 21.6477C75.7724 20.7358 75.5108 19.697 75.5108 18.531C75.5108 17.3502 75.7724 16.3113 76.2956 15.4144C76.8188 14.5175 77.5288 13.815 78.4257 13.3068C79.3225 12.7985 80.3465 12.5444 81.4975 12.5444C82.6634 12.5444 83.6948 12.7985 84.5917 13.3068C85.5035 13.815 86.2135 14.5175 86.7217 15.4144C87.2449 16.3113 87.5065 17.3502 87.5065 18.531C87.5065 19.697 87.2449 20.7358 86.7217 21.6477C86.2135 22.5445 85.5035 23.2546 84.5917 23.7777C83.6798 24.286 82.6484 24.5401 81.4975 24.5401ZM81.4975 23.1275C82.3495 23.1275 83.1043 22.9407 83.7621 22.567C84.4198 22.1783 84.9355 21.6402 85.3091 20.9526C85.6978 20.25 85.8921 19.4429 85.8921 18.531C85.8921 17.6043 85.6978 16.7971 85.3091 16.1095C84.9355 15.4219 84.4198 14.8912 83.7621 14.5175C83.1043 14.1289 82.357 13.9346 81.5199 13.9346C80.6828 13.9346 79.9354 14.1289 79.2777 14.5175C78.62 14.8912 78.0968 15.4219 77.7082 16.1095C77.3195 16.7971 77.1252 17.6043 77.1252 18.531C77.1252 19.4429 77.3195 20.25 77.7082 20.9526C78.0968 21.6402 78.62 22.1783 79.2777 22.567C79.9354 22.9407 80.6753 23.1275 81.4975 23.1275Z" fill="white"/>
<path d="M95.6221 24.5401C94.6206 24.5401 93.7462 24.3532 92.9988 23.9795C92.2514 23.6058 91.6684 23.0453 91.2499 22.2979C90.8463 21.5505 90.6445 20.6163 90.6445 19.4952V12.6565H92.2364V19.3158C92.2364 20.5714 92.5429 21.5206 93.1557 22.1634C93.7835 22.7912 94.658 23.1051 95.7791 23.1051C96.6012 23.1051 97.3112 22.9407 97.9091 22.6118C98.522 22.268 98.9854 21.7747 99.2993 21.132C99.6281 20.4892 99.7926 19.7194 99.7926 18.8225V12.6565H101.385V24.428H99.8598V21.1992L100.106 21.7822C99.7328 22.6492 99.1498 23.3293 98.3576 23.8226C97.5803 24.3009 96.6685 24.5401 95.6221 24.5401Z" fill="white"/>
<path d="M105.821 24.428V12.6565H107.346V15.8629L107.189 15.3023C107.518 14.4054 108.071 13.7253 108.848 13.2619C109.625 12.7836 110.59 12.5444 111.741 12.5444V14.0915C111.681 14.0915 111.621 14.0915 111.561 14.0915C111.501 14.0766 111.442 14.0691 111.382 14.0691C110.141 14.0691 109.17 14.4503 108.467 15.2126C107.764 15.96 107.413 17.0288 107.413 18.4189V24.428H105.821Z" fill="white"/>
<path d="M120.654 12.5444C121.611 12.5444 122.448 12.7313 123.166 13.105C123.898 13.4637 124.466 14.0168 124.87 14.7642C125.288 15.5116 125.498 16.4533 125.498 17.5893V24.428H123.906V17.7463C123.906 16.5056 123.592 15.5714 122.964 14.9436C122.351 14.3008 121.484 13.9794 120.363 13.9794C119.526 13.9794 118.793 14.1513 118.166 14.4951C117.553 14.824 117.074 15.3098 116.731 15.9525C116.402 16.5803 116.237 17.3427 116.237 18.2396V24.428H114.645V12.6565H116.17V15.8853L115.923 15.2799C116.297 14.4279 116.895 13.7627 117.717 13.2843C118.539 12.7911 119.518 12.5444 120.654 12.5444Z" fill="white"/>
</svg>
