<svg width="188" height="198" viewBox="0 0 188 198" fill="none" xmlns="http://www.w3.org/2000/svg">
<path fill-rule="evenodd" clip-rule="evenodd" d="M69.2355 79.4724C72.6107 81.2632 76.4703 81.157 79.63 79.5252C74.4834 73.6965 70.8704 66.6383 69.1327 59.0489C67.1899 60.1049 65.5273 61.7462 64.4287 63.884C61.5184 69.5473 63.6806 76.5258 69.2355 79.4724ZM84.545 74.5785C83.667 76.287 82.4288 77.6783 80.9752 78.7072C75.8307 72.9534 72.2441 65.9384 70.5724 58.3924C73.4709 57.3086 76.7894 57.4252 79.7382 58.9897C85.2931 61.9364 87.4553 68.9152 84.545 74.5785ZM80.4641 57.6215C77.1812 55.8797 73.5012 55.7156 70.2603 56.858C69.3027 51.6925 69.2374 46.3053 70.1759 40.9243L104.204 58.858C105.755 59.6753 107.086 60.7548 108.172 62.0155C108.202 62.0583 108.235 62.0971 108.271 62.1319C111.783 66.303 112.648 72.3978 109.974 77.5672L102.245 92.5082C102.237 92.5225 102.229 92.5371 102.222 92.552L96.2675 104.064C94.5352 107.412 91.5336 109.905 87.9579 110.97L77.8871 113.971C77.806 113.942 77.7186 113.926 77.6275 113.926C77.376 113.926 77.1526 114.046 77.0111 114.232L63.4104 118.284C63.2088 118.344 63.0403 118.484 62.9436 118.67L25.8807 190.319L25.8797 190.321C25.6922 190.686 25.4261 191.005 25.1006 191.255C24.7754 191.505 24.3989 191.679 23.9982 191.767L23.9971 191.767L11.7421 194.389C10.4576 194.664 9.15054 193.98 8.62984 192.734L3.77143 181.119C3.60944 180.732 3.53423 180.313 3.55125 179.893C3.56828 179.473 3.67703 179.062 3.86986 178.689L4.99337 176.517C5.17049 176.172 5.41774 175.868 5.71926 175.624C6.02065 175.381 6.3696 175.203 6.74371 175.102L6.7442 175.102L11.0067 173.966C13.4799 173.308 14.8366 170.638 13.9636 168.227L12.4644 164.086C12.3295 163.713 12.2732 163.316 12.2989 162.92C12.3247 162.524 12.4319 162.138 12.6139 161.785L15.3113 156.571C15.4884 156.226 15.7356 155.922 16.0371 155.678C16.3383 155.435 16.687 155.258 17.0608 155.157L17.062 155.156L21.3244 154.02C23.7974 153.362 25.1541 150.693 24.2815 148.281L22.7822 144.14C22.6473 143.767 22.591 143.37 22.6166 142.974C22.6423 142.578 22.7495 142.192 22.9315 141.84L25.6287 136.625C25.806 136.28 26.0533 135.976 26.3548 135.733C26.6563 135.489 27.0054 135.311 27.3796 135.21L31.6423 134.075C34.1153 133.416 35.4721 130.747 34.599 128.335L33.0998 124.194C32.9649 123.821 32.9085 123.424 32.9342 123.028C32.9598 122.633 33.0669 122.247 33.2487 121.894L33.249 121.894L40.9258 107.053C41.0214 106.868 41.0386 106.653 40.9734 106.455L32.8883 81.9443C32.3047 80.1708 32.0806 78.2987 32.2291 76.4376C32.3776 74.5764 32.8958 72.7636 33.7533 71.1051L39.0322 60.9C39.2288 60.5201 39.0801 60.0528 38.7002 59.8563C38.3203 59.6598 37.853 59.8084 37.6565 60.1883L32.3775 70.3936C31.4254 72.235 30.85 74.2479 30.6851 76.3144C30.5202 78.3808 30.7691 80.4593 31.4171 82.4285L31.4172 82.429L39.4004 106.631L31.873 121.183L31.8727 121.183C31.5928 121.725 31.428 122.319 31.3885 122.928C31.349 123.537 31.4357 124.147 31.6432 124.721L33.1426 128.863C33.7138 130.44 32.8178 132.159 31.2436 132.578L26.9791 133.714L26.977 133.715C26.3943 133.872 25.8508 134.149 25.3814 134.528C24.9123 134.907 24.5275 135.38 24.2517 135.916L24.2511 135.917L21.5552 141.129C21.2753 141.671 21.1105 142.265 21.071 142.874C21.0315 143.483 21.1182 144.093 21.3257 144.667L22.8251 148.808C23.3959 150.386 22.4998 152.104 20.9257 152.524L16.6599 153.661C16.077 153.817 15.5333 154.094 15.0638 154.474C14.5946 154.853 14.2098 155.326 13.9341 155.862L13.9335 155.863L11.2379 161.074L11.2377 161.075C10.9578 161.617 10.7929 162.211 10.7533 162.819C10.7137 163.428 10.8004 164.039 11.0078 164.612L12.5072 168.754C13.0785 170.332 12.1822 172.051 10.6083 172.469L6.34361 173.606L6.34188 173.607C5.75904 173.763 5.21543 174.04 4.74595 174.419C4.27675 174.798 3.89193 175.271 3.61617 175.808L3.61565 175.809L2.49405 177.978C2.19729 178.552 2.02982 179.185 2.00363 179.831C1.97744 180.476 2.09305 181.12 2.34233 181.717L7.20085 193.332C8.00371 195.252 10.0391 196.338 12.0662 195.904L24.3253 193.28C24.9501 193.145 25.5371 192.873 26.0441 192.483C26.5508 192.094 26.965 191.598 27.257 191.029L27.2575 191.028L64.1681 119.674L76.8531 115.895V153.54C76.7972 157.932 80.2895 161.507 84.664 161.51L110.562 161.527C110.634 161.548 110.709 161.56 110.787 161.56H136.804C136.858 161.56 136.911 161.554 136.962 161.544L161.874 161.559C166.243 161.562 169.82 158.001 169.879 153.614L169.879 153.603V144.219C169.879 143.792 169.532 143.445 169.104 143.445C168.677 143.445 168.33 143.792 168.33 144.219V153.598C168.279 157.146 165.384 160.013 161.875 160.011L137.578 159.995V127.654C137.578 127.226 137.231 126.879 136.804 126.879H110.787C110.359 126.879 110.013 127.226 110.013 127.654V159.977L84.665 159.961C81.1629 159.959 78.3546 157.098 78.4019 153.555L78.402 153.545V115.434L88.4002 112.455C92.383 111.268 95.7195 108.494 97.6432 104.775L103.328 93.786C107.029 94.6823 110.754 95.0991 114.43 95.0716C114.814 97.8018 116.303 100.358 118.758 102.005C123.344 105.083 129.544 103.807 132.607 99.1749C135.668 94.5456 134.448 88.2992 129.866 85.2231L129.866 85.223C125.279 82.1454 119.079 83.4213 116.016 88.0531L116.016 88.0532C114.902 89.7391 114.355 91.6396 114.331 93.5233C110.93 93.542 107.486 93.1669 104.061 92.3682L111.349 78.2789C111.474 78.0387 111.591 77.7966 111.702 77.553C111.81 77.5368 111.916 77.4975 112.013 77.4334L124.507 69.1898L168.334 98.6825C168.331 98.7091 168.33 98.736 168.33 98.7633V129.774C168.33 130.202 168.677 130.549 169.104 130.549C169.532 130.549 169.879 130.202 169.879 129.774V99.722L174.065 102.539L174.07 102.542C177.708 104.951 182.618 103.9 185.041 100.226C187.463 96.5534 186.505 91.6195 182.869 89.2105L182.867 89.2092L154.94 70.4379C156.133 68.19 157.142 65.8486 157.957 63.4368C166.193 39.1007 153.286 12.6953 129.116 4.46393C104.944 -3.76786 78.6774 9.29929 70.4413 33.6365C69.8856 35.2788 69.4261 36.9305 69.0598 38.5853L66.6737 37.3278C59.1958 33.3878 49.9965 36.3331 46.084 43.8971L44.7535 46.4686C44.557 46.8485 44.7056 47.3158 45.0855 47.5123C45.4654 47.7089 45.9327 47.5603 46.1292 47.1804L47.4597 44.6089C50.9835 37.7961 59.2471 35.1655 65.9515 38.698L68.7383 40.1667C67.6541 46.0126 67.7195 51.8735 68.8009 57.476C66.4173 58.6633 64.3724 60.605 63.0511 63.1761C59.7597 69.5809 62.1938 77.4904 68.5096 80.8407C74.8322 84.1953 82.6277 81.6977 85.9226 75.2865C89.214 68.8817 86.7799 60.9718 80.4641 57.6215ZM136.029 159.994L111.561 159.978V128.428H136.029V159.994ZM104.926 57.4877L70.4824 39.3351C70.8503 37.5955 71.3244 35.8589 71.9085 34.133C79.8731 10.598 105.265 -2.02238 128.617 5.93013C151.969 13.883 164.455 39.4045 156.49 62.9406L156.49 62.9409C155.719 65.2224 154.768 67.4387 153.647 69.569L129.029 53.0216L129.024 53.0187C126.419 51.2929 123.035 51.2961 120.395 53.0102L120.39 53.0131L108.944 60.5559C107.814 59.3443 106.468 58.3003 104.926 57.4877ZM124.085 67.6127L112.541 75.2293C113.827 70.5281 112.808 65.5264 109.948 61.7493L121.238 54.3093L121.24 54.308C123.37 52.9261 126.085 52.9308 128.167 54.3086L128.169 54.3101L182.007 90.4976L182.012 90.5006C184.919 92.4259 185.712 96.3954 183.748 99.3727L184.393 99.7983L183.748 99.3727C181.785 102.349 177.833 103.174 174.928 101.252L174.925 101.251L124.944 67.6166C124.685 67.4422 124.346 67.4406 124.085 67.6127ZM115.99 95.0332C116.354 97.2779 117.603 99.365 119.621 100.719C123.484 103.311 128.719 102.246 131.315 98.3207C132.75 96.1499 133.074 93.5644 132.424 91.2475C127.267 93.4884 121.7 94.795 115.99 95.0332ZM115.881 93.4875C121.437 93.2614 126.855 91.988 131.872 89.7985C131.24 88.507 130.274 87.3626 129.003 86.5092C125.14 83.9172 119.904 84.9824 117.308 88.9074C116.374 90.3212 115.911 91.9108 115.881 93.4875ZM20.7387 180.096C20.5417 180.476 20.0743 180.624 19.6946 180.427C19.3149 180.23 19.1668 179.763 19.3637 179.383L49.536 121.217C49.733 120.837 50.2004 120.689 50.5801 120.886C50.9598 121.083 51.1079 121.551 50.911 121.93L20.7387 180.096Z" fill="#CAD0D2"/>
<path d="M79.63 79.5252L80.3183 80.8579C80.7291 80.6458 81.0191 80.256 81.1043 79.8016C81.1895 79.3472 81.0604 78.8789 80.7544 78.5323L79.63 79.5252ZM69.2355 79.4724L69.9385 78.1474L69.9384 78.1473L69.2355 79.4724ZM69.1327 59.0489L70.5948 58.7141C70.4901 58.2568 70.1774 57.8747 69.7497 57.6817C69.322 57.4887 68.8286 57.507 68.4163 57.731L69.1327 59.0489ZM64.4287 63.884L65.7629 64.5696H65.7629L64.4287 63.884ZM80.9752 78.7072L79.857 79.707C80.3653 80.2755 81.2193 80.3721 81.8418 79.9315L80.9752 78.7072ZM84.545 74.5785L85.8791 75.2642L85.8791 75.2642L84.545 74.5785ZM70.5724 58.3924L70.0471 56.9874C69.3468 57.2492 68.9462 57.9868 69.1079 58.7168L70.5724 58.3924ZM79.7382 58.9897L79.0352 60.3148L79.0353 60.3149L79.7382 58.9897ZM70.2603 56.858L68.7855 57.1314C68.8654 57.5625 69.1299 57.937 69.5094 58.1565C69.889 58.376 70.3455 58.4184 70.759 58.2727L70.2603 56.858ZM80.4641 57.6215L79.7611 58.9465L79.7612 58.9466L80.4641 57.6215ZM70.1759 40.9243L70.8752 39.5974C70.4509 39.3737 69.9452 39.3665 69.5146 39.578C69.0841 39.7894 68.7806 40.1941 68.6982 40.6666L70.1759 40.9243ZM104.204 58.858L103.505 60.1849L103.505 60.185L104.204 58.858ZM108.172 62.0155L109.404 61.1598C109.374 61.1171 109.342 61.076 109.309 61.0367L108.172 62.0155ZM108.271 62.1319L109.419 61.1658C109.385 61.1258 109.349 61.0876 109.311 61.0513L108.271 62.1319ZM109.974 77.5672L111.306 78.2564L111.306 78.2564L109.974 77.5672ZM102.245 92.5082L103.554 93.2397C103.562 93.2257 103.57 93.2116 103.577 93.1973L102.245 92.5082ZM102.222 92.552L103.555 93.2412C103.562 93.227 103.569 93.2126 103.576 93.1981L102.222 92.552ZM96.2675 104.064L97.5998 104.753L97.5998 104.753L96.2675 104.064ZM87.9579 110.97L88.3862 112.408H88.3862L87.9579 110.97ZM77.8871 113.971L77.3844 115.384C77.6843 115.491 78.0104 115.499 78.3155 115.408L77.8871 113.971ZM77.0111 114.232L77.4394 115.669C77.7439 115.579 78.0118 115.393 78.2043 115.141L77.0111 114.232ZM63.4104 118.284L62.982 116.846L62.982 116.846L63.4104 118.284ZM62.9436 118.67L61.6114 117.981L61.6113 117.981L62.9436 118.67ZM25.8807 190.319L24.5484 189.63L24.5476 189.631L25.8807 190.319ZM25.8797 190.321L24.5465 189.633L24.5453 189.636L25.8797 190.321ZM25.1006 191.255L24.1869 190.065H24.1869L25.1006 191.255ZM23.9982 191.767L24.3017 193.235C24.3067 193.234 24.3116 193.233 24.3166 193.232L23.9982 191.767ZM23.9971 191.767L23.6936 190.298L23.6832 190.3L23.9971 191.767ZM11.7421 194.389L12.0559 195.856H12.056L11.7421 194.389ZM8.62984 192.734L10.0137 192.156L10.0137 192.156L8.62984 192.734ZM3.77143 181.119L2.38739 181.698L2.38762 181.698L3.77143 181.119ZM3.55125 179.893L2.05249 179.833H2.05249L3.55125 179.893ZM3.86986 178.689L2.53747 178L2.53719 178.001L3.86986 178.689ZM4.99337 176.517L6.32577 177.206L6.32761 177.202L4.99337 176.517ZM5.71926 175.624L6.66183 176.791L6.66189 176.791L5.71926 175.624ZM6.74371 175.102L6.38322 173.646C6.37338 173.649 6.36358 173.651 6.3538 173.654L6.74371 175.102ZM6.7442 175.102L7.10469 176.558C7.1133 176.556 7.1219 176.554 7.13047 176.552L6.7442 175.102ZM11.0067 173.966L10.6208 172.517L10.6204 172.517L11.0067 173.966ZM13.9636 168.227L15.374 167.716L15.374 167.716L13.9636 168.227ZM12.4644 164.086L11.0537 164.596L11.054 164.596L12.4644 164.086ZM12.2989 162.92L13.7958 163.017L12.2989 162.92ZM12.6139 161.785L11.2816 161.096L11.2812 161.097L12.6139 161.785ZM15.3113 156.571L16.6436 157.26L16.6456 157.256L15.3113 156.571ZM16.0371 155.678L16.9797 156.845L16.9797 156.845L16.0371 155.678ZM17.0608 155.157L17.4509 156.605L17.4571 156.604L17.0608 155.157ZM17.062 155.156L16.6757 153.707L16.6657 153.71L17.062 155.156ZM21.3244 154.02L20.9382 152.571L20.9381 152.571L21.3244 154.02ZM24.2815 148.281L25.692 147.771L25.692 147.771L24.2815 148.281ZM22.7822 144.14L21.3717 144.65L21.3718 144.65L22.7822 144.14ZM22.9315 141.84L21.5992 141.15L21.5986 141.151L22.9315 141.84ZM25.6287 136.625L26.9611 137.314L26.9629 137.311L25.6287 136.625ZM26.3548 135.733L25.4121 134.566L25.4121 134.566L26.3548 135.733ZM27.3796 135.21L26.9934 133.761L26.9892 133.762L27.3796 135.21ZM31.6423 134.075L31.2562 132.625L31.2562 132.625L31.6423 134.075ZM34.599 128.335L33.1886 128.846L33.1886 128.846L34.599 128.335ZM33.0998 124.194L31.6891 124.704L31.6893 124.705L33.0998 124.194ZM32.9342 123.028L34.431 123.125L32.9342 123.028ZM33.2487 121.894L31.9158 121.206L31.9158 121.206L33.2487 121.894ZM33.249 121.894L31.9167 121.205L31.9161 121.206L33.249 121.894ZM40.9258 107.053L42.2581 107.742L40.9258 107.053ZM40.9734 106.455L39.5489 106.925L39.5489 106.925L40.9734 106.455ZM32.8883 81.9443L31.4635 82.4132L31.4638 82.4141L32.8883 81.9443ZM32.2291 76.4376L33.7244 76.5569V76.5569L32.2291 76.4376ZM33.7533 71.1051L32.421 70.4159L32.4209 70.4162L33.7533 71.1051ZM39.0322 60.9L40.3645 61.5892L39.0322 60.9ZM38.7002 59.8563L38.011 61.1886L38.011 61.1886L38.7002 59.8563ZM37.6565 60.1883L36.3242 59.4992V59.4992L37.6565 60.1883ZM32.3775 70.3936L31.0452 69.7044L31.0451 69.7047L32.3775 70.3936ZM30.6851 76.3144L29.1899 76.195L30.6851 76.3144ZM31.4171 82.4285L32.8422 81.9605L32.8419 81.9596L31.4171 82.4285ZM31.4172 82.429L29.9921 82.8969L29.9927 82.8988L31.4172 82.429ZM39.4004 106.631L40.7327 107.32C40.918 106.962 40.9513 106.544 40.8249 106.161L39.4004 106.631ZM31.873 121.183L30.5407 120.494L30.5388 120.497L31.873 121.183ZM31.8727 121.183L33.2055 121.871L33.2068 121.869L31.8727 121.183ZM31.3885 122.928L29.8917 122.831L31.3885 122.928ZM31.6432 124.721L30.2326 125.231L30.2328 125.231L31.6432 124.721ZM33.1426 128.863L31.7322 129.373L31.7322 129.373L33.1426 128.863ZM31.2436 132.578L30.8575 131.129L30.8575 131.129L31.2436 132.578ZM26.9791 133.714L26.5929 132.265L26.5926 132.265L26.9791 133.714ZM26.977 133.715L26.5905 132.265L26.5869 132.266L26.977 133.715ZM25.3814 134.528L26.3241 135.695H26.3241L25.3814 134.528ZM24.2517 135.916L25.5835 136.606L25.5856 136.602L24.2517 135.916ZM24.2511 135.917L22.9193 135.227L22.9188 135.228L24.2511 135.917ZM21.5552 141.129L20.2229 140.44L20.2223 140.441L21.5552 141.129ZM21.071 142.874L19.5741 142.777H19.5741L21.071 142.874ZM21.3257 144.667L19.9151 145.177L19.9153 145.177L21.3257 144.667ZM22.8251 148.808L24.2356 148.298L24.2355 148.298L22.8251 148.808ZM20.9257 152.524L20.5396 151.074L20.5394 151.074L20.9257 152.524ZM16.6599 153.661L16.2735 152.211L16.2704 152.212L16.6599 153.661ZM15.0638 154.474L16.0064 155.64H16.0064L15.0638 154.474ZM13.9341 155.862L15.266 156.552L15.2682 156.548L13.9341 155.862ZM13.9335 155.863L12.6017 155.173L12.6012 155.174L13.9335 155.863ZM11.2379 161.074L9.90563 160.385L9.90561 160.385L11.2379 161.074ZM11.2377 161.075L9.90538 160.386L9.90496 160.386L11.2377 161.075ZM11.0078 164.612L9.59711 165.122L9.59734 165.123L11.0078 164.612ZM12.5072 168.754L13.9176 168.243L13.9176 168.243L12.5072 168.754ZM10.6083 172.469L10.2225 171.02L10.222 171.02L10.6083 172.469ZM6.34361 173.606L5.95733 172.157L5.94799 172.159L6.34361 173.606ZM6.34188 173.607L6.7315 175.055L6.7375 175.053L6.34188 173.607ZM4.74595 174.419L3.80336 173.253H3.80335L4.74595 174.419ZM3.61617 175.808L2.28211 175.122L2.28027 175.126L3.61617 175.808ZM3.61565 175.809L4.94806 176.498L4.95155 176.491L3.61565 175.809ZM2.49405 177.978L1.16166 177.289L1.16143 177.289L2.49405 177.978ZM2.00363 179.831L3.5024 179.891L2.00363 179.831ZM2.34233 181.717L0.958346 182.295L0.958515 182.296L2.34233 181.717ZM7.20085 193.332L8.58473 192.753L8.58467 192.753L7.20085 193.332ZM12.0662 195.904L12.3801 197.371H12.3801L12.0662 195.904ZM24.3253 193.28L24.6392 194.747L24.6432 194.746L24.3253 193.28ZM26.0441 192.483L25.1304 191.294L25.1304 191.294L26.0441 192.483ZM27.257 191.029L28.5912 191.715L28.5965 191.704L27.257 191.029ZM27.2575 191.028L25.9252 190.339C25.9228 190.344 25.9204 190.349 25.918 190.353L27.2575 191.028ZM64.1681 119.674L63.7398 118.237C63.3493 118.353 63.023 118.623 62.8358 118.985L64.1681 119.674ZM76.8531 115.895H78.3531C78.3531 115.421 78.1294 114.976 77.7496 114.692C77.3699 114.409 76.8787 114.322 76.4248 114.457L76.8531 115.895ZM76.8531 153.54L78.353 153.559C78.3531 153.553 78.3531 153.546 78.3531 153.54H76.8531ZM84.664 161.51L84.663 163.01H84.663L84.664 161.51ZM110.562 161.527L110.997 160.091C110.856 160.048 110.71 160.027 110.563 160.027L110.562 161.527ZM136.962 161.544L136.963 160.044C136.86 160.043 136.758 160.054 136.657 160.075L136.962 161.544ZM161.874 161.559L161.875 160.059H161.875L161.874 161.559ZM169.879 153.614L171.379 153.634L171.379 153.622L169.879 153.614ZM169.879 153.603L171.379 153.612V153.603H169.879ZM168.33 153.598L169.83 153.619C169.83 153.612 169.83 153.605 169.83 153.598H168.33ZM161.875 160.011L161.877 158.511H161.876L161.875 160.011ZM137.578 159.995H136.078C136.078 160.823 136.749 161.495 137.577 161.495L137.578 159.995ZM110.013 159.977L110.012 161.477C110.41 161.478 110.791 161.32 111.073 161.038C111.354 160.757 111.513 160.375 111.513 159.977H110.013ZM84.665 159.961L84.664 161.461H84.6641L84.665 159.961ZM78.4019 153.555L79.9018 153.575L79.9019 153.565L78.4019 153.555ZM78.402 153.545L79.902 153.555V153.545H78.402ZM78.402 115.434L77.9737 113.996C77.3378 114.185 76.902 114.77 76.902 115.434H78.402ZM88.4002 112.455L88.8285 113.892H88.8285L88.4002 112.455ZM97.6432 104.775L98.9755 105.465L98.9756 105.464L97.6432 104.775ZM103.328 93.786L103.681 92.3281C103.009 92.1654 102.313 92.4829 101.996 93.0968L103.328 93.786ZM114.43 95.0716L115.915 94.8625C115.81 94.118 115.17 93.566 114.419 93.5717L114.43 95.0716ZM118.758 102.005L117.922 103.251L117.922 103.251L118.758 102.005ZM132.607 99.1749L131.355 98.3476L131.355 98.3477L132.607 99.1749ZM129.866 85.2231L130.702 83.9777L130.698 83.975L129.866 85.2231ZM129.866 85.223L129.03 86.4686L129.034 86.4711L129.866 85.223ZM116.016 88.0531L114.765 87.2256C114.762 87.2298 114.76 87.234 114.757 87.2382L116.016 88.0531ZM116.016 88.0532L117.268 88.8803C117.27 88.8763 117.273 88.8722 117.276 88.8681L116.016 88.0532ZM114.331 93.5233L114.339 95.0233C115.157 95.0188 115.821 94.3599 115.831 93.5421L114.331 93.5233ZM104.061 92.3682L102.729 91.6791C102.516 92.0901 102.505 92.5763 102.699 92.9965C102.893 93.4167 103.27 93.724 103.721 93.829L104.061 92.3682ZM111.349 78.2789L112.682 78.968L112.682 78.968L111.349 78.2789ZM111.702 77.553L111.48 76.0695C110.977 76.1447 110.546 76.4698 110.336 76.933L111.702 77.553ZM112.013 77.4334L112.839 78.6854H112.839L112.013 77.4334ZM124.507 69.1898L125.345 67.9453C124.843 67.6074 124.187 67.6044 123.681 67.9377L124.507 69.1898ZM168.334 98.6825L169.826 98.8369C169.883 98.2855 169.632 97.7476 169.172 97.4381L168.334 98.6825ZM169.879 99.722L170.716 98.4776C170.256 98.1681 169.663 98.1375 169.174 98.398C168.685 98.6585 168.379 99.1677 168.379 99.722H169.879ZM174.065 102.539L173.228 103.784L173.232 103.787L174.065 102.539ZM174.07 102.542L173.237 103.79L173.242 103.793L174.07 102.542ZM185.041 100.226L183.789 99.3996L183.789 99.3997L185.041 100.226ZM182.869 89.2105L182.039 90.46L182.04 90.461L182.869 89.2105ZM182.867 89.2092L182.03 90.4541L182.037 90.4587L182.867 89.2092ZM154.94 70.4379L153.615 69.7346C153.255 70.4131 153.465 71.2542 154.103 71.6828L154.94 70.4379ZM157.957 63.4368L156.537 62.956L156.536 62.9566L157.957 63.4368ZM129.116 4.46393L129.6 3.04402L129.6 3.04401L129.116 4.46393ZM70.4413 33.6365L69.0205 33.1556V33.1556L70.4413 33.6365ZM69.0598 38.5853L68.3605 39.9123C68.7743 40.1304 69.2662 40.143 69.6906 39.9463C70.115 39.7496 70.4233 39.3662 70.5244 38.9095L69.0598 38.5853ZM66.6737 37.3278L67.373 36.0008L67.3729 36.0007L66.6737 37.3278ZM46.084 43.8971L47.4163 44.5864L47.4164 44.5862L46.084 43.8971ZM44.7535 46.4686L46.0858 47.1579L44.7535 46.4686ZM45.0855 47.5123L44.3962 48.8446L44.3962 48.8446L45.0855 47.5123ZM46.1292 47.1804L44.797 46.4911L44.797 46.4911L46.1292 47.1804ZM47.4597 44.6089L48.7919 45.2982L48.792 45.298L47.4597 44.6089ZM65.9515 38.698L66.6509 37.371L66.6508 37.371L65.9515 38.698ZM68.7383 40.1667L70.2132 40.4402C70.3329 39.7945 70.0187 39.1459 69.4377 38.8397L68.7383 40.1667ZM68.8009 57.476L69.4697 58.8186C70.0725 58.5183 70.4013 57.853 70.2737 57.1917L68.8009 57.476ZM63.0511 63.1761L64.3852 63.8617H64.3852L63.0511 63.1761ZM68.5096 80.8407L69.2126 79.5156L69.2125 79.5156L68.5096 80.8407ZM85.9226 75.2865L87.2567 75.9722L87.2568 75.9721L85.9226 75.2865ZM111.561 159.978H110.061C110.061 160.807 110.732 161.478 111.56 161.478L111.561 159.978ZM136.029 159.994L136.028 161.494C136.426 161.494 136.808 161.336 137.09 161.055C137.371 160.774 137.529 160.392 137.529 159.994H136.029ZM111.561 128.428V126.928C110.733 126.928 110.061 127.6 110.061 128.428H111.561ZM136.029 128.428H137.529C137.529 127.6 136.858 126.928 136.029 126.928V128.428ZM70.4824 39.3351L69.0149 39.0247C68.8761 39.6809 69.1898 40.3494 69.7831 40.6621L70.4824 39.3351ZM104.926 57.4877L104.227 58.8147L104.227 58.8147L104.926 57.4877ZM71.9085 34.133L70.4876 33.6521V33.6521L71.9085 34.133ZM128.617 5.93013L129.1 4.51022L129.1 4.51021L128.617 5.93013ZM156.49 62.9406L157.91 63.4253L157.911 63.4215L156.49 62.9406ZM156.49 62.9409L155.07 62.4562L155.069 62.4607L156.49 62.9409ZM153.647 69.569L152.81 70.8139C153.164 71.0514 153.601 71.1276 154.014 71.0234C154.427 70.9192 154.776 70.6444 154.975 70.2676L153.647 69.569ZM129.029 53.0216L129.866 51.7767L129.861 51.7737L129.029 53.0216ZM129.024 53.0187L129.857 51.7708L129.853 51.7681L129.024 53.0187ZM120.395 53.0102L119.578 51.7521L119.574 51.7544L120.395 53.0102ZM120.39 53.0131L119.57 51.7572L119.565 51.7606L120.39 53.0131ZM108.944 60.5559L107.848 61.5791C108.347 62.1141 109.159 62.211 109.77 61.8084L108.944 60.5559ZM112.541 75.2293L111.094 74.8336C110.929 75.4359 111.155 76.0773 111.661 76.4438C112.166 76.8103 112.846 76.8253 113.367 76.4814L112.541 75.2293ZM124.085 67.6127L123.259 66.3607V66.3607L124.085 67.6127ZM109.948 61.7493L109.123 60.4969C108.776 60.7251 108.54 61.0867 108.47 61.4955C108.4 61.9044 108.502 62.324 108.752 62.6548L109.948 61.7493ZM121.238 54.3093L120.423 53.05L120.413 53.0568L121.238 54.3093ZM121.24 54.308L122.055 55.5673L122.056 55.5664L121.24 54.308ZM128.167 54.3086L128.996 53.0582L128.995 53.0577L128.167 54.3086ZM128.169 54.3101L129.006 53.0651L128.998 53.0597L128.169 54.3101ZM182.007 90.4976L181.17 91.7426L181.175 91.7457L182.007 90.4976ZM182.012 90.5006L181.18 91.7487L181.184 91.7513L182.012 90.5006ZM183.748 99.3727L182.496 98.5468C182.04 99.2383 182.231 100.169 182.922 100.625L183.748 99.3727ZM184.393 99.7983L183.568 101.051C184.259 101.507 185.19 101.316 185.646 100.624C186.102 99.9327 185.911 99.0023 185.219 98.5462L184.393 99.7983ZM183.748 99.3727L184.574 98.1206C184.242 97.9015 183.836 97.8234 183.447 97.9033C183.057 97.9833 182.715 98.2148 182.496 98.5469L183.748 99.3727ZM174.928 101.252L175.755 100.001L175.754 100.001L174.928 101.252ZM174.925 101.251L174.088 102.495L174.099 102.503L174.925 101.251ZM124.944 67.6166L125.781 66.3722L125.781 66.3722L124.944 67.6166ZM119.621 100.719L118.785 101.964L118.785 101.964L119.621 100.719ZM115.99 95.0332L115.928 93.5345C115.499 93.5524 115.099 93.7528 114.828 94.0852C114.557 94.4176 114.441 94.85 114.51 95.2734L115.99 95.0332ZM131.315 98.3207L130.063 97.4934L130.063 97.4934L131.315 98.3207ZM132.424 91.2475L133.868 90.8425C133.751 90.4251 133.459 90.0788 133.068 89.8928C132.676 89.7067 132.224 89.699 131.826 89.8718L132.424 91.2475ZM131.872 89.7985L132.472 91.1733C132.847 91.0096 133.139 90.6999 133.28 90.3159C133.421 89.9319 133.399 89.5069 133.219 89.1394L131.872 89.7985ZM115.881 93.4875L114.381 93.459C114.373 93.8723 114.536 94.2705 114.831 94.5596C115.127 94.8487 115.529 95.0031 115.942 94.9863L115.881 93.4875ZM129.003 86.5092L129.839 85.2638L129.839 85.2636L129.003 86.5092ZM117.308 88.9074L116.057 88.08L116.057 88.0803L117.308 88.9074ZM20.7387 180.096L22.0702 180.787H22.0702L20.7387 180.096ZM19.3637 179.383L20.6953 180.074H20.6953L19.3637 179.383ZM49.536 121.217L50.8676 121.908L50.8676 121.908L49.536 121.217ZM50.5801 120.886L49.8894 122.218H49.8894L50.5801 120.886ZM50.911 121.93L52.2425 122.621L52.2425 122.621L50.911 121.93ZM78.9417 78.1924C76.2002 79.6083 72.8609 79.6979 69.9385 78.1474L68.5325 80.7975C72.3606 82.8285 76.7404 82.7057 80.3183 80.8579L78.9417 78.1924ZM67.6705 59.3837C69.4639 67.2158 73.1924 74.5006 78.5056 80.518L80.7544 78.5323C75.7744 72.8924 72.277 66.0607 70.5948 58.7141L67.6705 59.3837ZM65.7629 64.5696C66.7208 62.7055 68.1654 61.2819 69.849 60.3669L68.4163 57.731C66.2144 58.9278 64.3338 60.787 63.0946 63.1984L65.7629 64.5696ZM69.9384 78.1473C65.1202 75.5914 63.2217 69.5145 65.7629 64.5696L63.0946 63.1984C59.8151 69.5801 62.2411 77.4601 68.5326 80.7975L69.9384 78.1473ZM81.8418 79.9315C83.4893 78.7654 84.8892 77.1904 85.8791 75.2642L83.2109 73.8929C82.4448 75.3835 81.3683 76.5912 80.1086 77.4829L81.8418 79.9315ZM69.1079 58.7168C70.8349 66.5126 74.5401 73.7604 79.857 79.707L82.0934 77.7074C77.1213 72.1464 73.6533 65.3643 72.0369 58.0679L69.1079 58.7168ZM80.4413 57.6647C77.0982 55.891 73.3313 55.7594 70.0471 56.9874L71.0978 59.7974C73.6105 58.8578 76.4807 58.9594 79.0352 60.3148L80.4413 57.6647ZM85.8791 75.2642C89.1586 68.8825 86.7327 61.0021 80.4411 57.6646L79.0353 60.3149C83.8535 62.8708 85.752 68.948 83.2109 73.8929L85.8791 75.2642ZM70.759 58.2727C73.6205 57.2641 76.8634 57.4091 79.7611 58.9465L81.1671 56.2964C77.499 54.3502 73.3819 54.1672 69.7617 55.4433L70.759 58.2727ZM68.6982 40.6666C67.7284 46.2268 67.7959 51.7939 68.7855 57.1314L71.7352 56.5846C70.8095 51.5912 70.7463 46.3839 71.6536 41.1821L68.6982 40.6666ZM104.903 57.531L70.8752 39.5974L69.4765 42.2513L103.505 60.1849L104.903 57.531ZM109.309 61.0367C108.103 59.6367 106.624 58.4379 104.903 57.5309L103.505 60.185C104.886 60.9128 106.07 61.8728 107.035 62.9944L109.309 61.0367ZM109.311 61.0513C109.346 61.0845 109.377 61.1209 109.404 61.1598L106.94 62.8713C107.026 62.9956 107.124 63.1097 107.231 63.2125L109.311 61.0513ZM111.306 78.2564C114.267 72.5327 113.309 65.7868 109.419 61.1658L107.124 63.098C110.257 66.8192 111.029 72.2629 108.641 76.8781L111.306 78.2564ZM103.577 93.1973L111.306 78.2564L108.641 76.8781L100.913 91.819L103.577 93.1973ZM103.576 93.1981C103.569 93.2123 103.562 93.2262 103.554 93.2397L100.935 91.7766C100.912 91.8188 100.89 91.8619 100.869 91.906L103.576 93.1981ZM97.5998 104.753L103.555 93.2412L100.89 91.8629L94.9352 103.374L97.5998 104.753ZM88.3862 112.408C92.3562 111.225 95.6821 108.46 97.5998 104.753L94.9352 103.374C93.3882 106.365 90.711 108.585 87.5296 109.533L88.3862 112.408ZM78.3155 115.408L88.3862 112.408L87.5296 109.533L77.4588 112.533L78.3155 115.408ZM77.6275 115.426C77.5449 115.426 77.4624 115.412 77.3844 115.384L78.3899 112.557C78.1496 112.472 77.8923 112.426 77.6275 112.426V115.426ZM78.2043 115.141C78.0743 115.311 77.8641 115.426 77.6275 115.426V112.426C76.888 112.426 76.2308 112.781 75.8178 113.323L78.2043 115.141ZM63.8387 119.722L77.4394 115.669L76.5828 112.794L62.982 116.846L63.8387 119.722ZM64.2759 119.36C64.1854 119.535 64.0276 119.665 63.8387 119.722L62.982 116.846C62.39 117.023 61.8952 117.433 61.6114 117.981L64.2759 119.36ZM27.213 191.008L64.2759 119.36L61.6113 117.981L24.5484 189.63L27.213 191.008ZM27.2128 191.008L27.2139 191.006L24.5476 189.631L24.5465 189.633L27.2128 191.008ZM26.0143 192.445C26.5156 192.06 26.9253 191.568 27.214 191.006L24.5453 189.636C24.459 189.804 24.3367 189.95 24.1869 190.065L26.0143 192.445ZM24.3166 193.232C24.9337 193.098 25.5135 192.829 26.0143 192.445L24.1869 190.065C24.0373 190.18 23.8641 190.261 23.6797 190.301L24.3166 193.232ZM24.3007 193.236L24.3017 193.235L23.6946 190.298L23.6936 190.298L24.3007 193.236ZM12.056 195.856L24.311 193.234L23.6832 190.3L11.4282 192.923L12.056 195.856ZM7.24596 193.313C8.04021 195.212 10.0531 196.285 12.0559 195.856L11.4282 192.923C10.8621 193.044 10.2609 192.747 10.0137 192.156L7.24596 193.313ZM2.38762 181.698L7.24603 193.313L10.0137 192.156L5.15525 180.541L2.38762 181.698ZM2.05249 179.833C2.02658 180.471 2.14101 181.108 2.38739 181.698L5.15547 180.541C5.07788 180.355 5.04188 180.155 5.05002 179.954L2.05249 179.833ZM2.53719 178.001C2.24382 178.569 2.07838 179.194 2.05249 179.833L5.05002 179.954C5.05817 179.753 5.11023 179.556 5.20254 179.378L2.53719 178.001ZM3.66098 175.828L2.53747 178L5.20225 179.378L6.32576 177.206L3.66098 175.828ZM4.7767 174.457C4.31248 174.832 3.93182 175.3 3.65913 175.831L6.32761 177.202C6.40916 177.043 6.52301 176.903 6.66183 176.791L4.7767 174.457ZM6.3538 173.654C5.77787 173.809 5.24065 174.083 4.77663 174.458L6.66189 176.791C6.80066 176.679 6.96133 176.597 7.13362 176.551L6.3538 173.654ZM6.38371 173.646L6.38322 173.646L7.1042 176.558L7.10469 176.558L6.38371 173.646ZM10.6204 172.517L6.35793 173.653L7.13047 176.552L11.393 175.416L10.6204 172.517ZM12.5532 168.737C13.1344 170.343 12.2218 172.091 10.6208 172.517L11.3926 175.416C14.738 174.525 16.5388 170.934 15.374 167.716L12.5532 168.737ZM11.054 164.596L12.5532 168.737L15.374 167.716L13.8748 163.575L11.054 164.596ZM10.8021 162.823C10.7629 163.425 10.8486 164.028 11.0537 164.596L13.875 163.576C13.8104 163.397 13.7834 163.207 13.7958 163.017L10.8021 162.823ZM11.2812 161.097C11.0043 161.633 10.8412 162.221 10.8021 162.823L13.7958 163.017C13.8081 162.828 13.8595 162.643 13.9467 162.474L11.2812 161.097ZM13.979 155.882L11.2816 161.096L13.9462 162.475L16.6436 157.26L13.979 155.882ZM15.0946 154.512C14.6303 154.887 14.2496 155.355 13.977 155.885L16.6456 157.256C16.7271 157.097 16.8409 156.957 16.9797 156.845L15.0946 154.512ZM16.6707 153.708C16.0951 153.863 15.5582 154.137 15.0945 154.512L16.9797 156.845C17.1184 156.733 17.2789 156.652 17.4509 156.605L16.6707 153.708ZM16.6657 153.71L16.6645 153.71L17.4571 156.604L17.4583 156.603L16.6657 153.71ZM20.9381 152.571L16.6757 153.707L17.4483 156.606L21.7107 155.47L20.9381 152.571ZM22.871 148.792C23.4519 150.397 22.5395 152.144 20.9382 152.571L21.7105 155.47C25.0552 154.579 26.8563 150.988 25.692 147.771L22.871 148.792ZM21.3718 144.65L22.8711 148.792L25.692 147.771L24.1927 143.629L21.3718 144.65ZM21.1198 142.877C21.0807 143.479 21.1665 144.083 21.3717 144.65L24.1928 143.63C24.1282 143.451 24.1012 143.261 24.1135 143.071L21.1198 142.877ZM21.5986 141.151C21.3219 141.688 21.1588 142.275 21.1198 142.877L24.1135 143.071C24.1258 142.882 24.1771 142.697 24.2643 142.528L21.5986 141.151ZM24.2964 135.936L21.5992 141.15L24.2638 142.529L26.9611 137.314L24.2964 135.936ZM25.4121 134.566C24.948 134.941 24.5674 135.409 24.2946 135.939L26.9629 137.311C27.0445 137.152 27.1585 137.012 27.2976 136.899L25.4121 134.566ZM26.9892 133.762C26.4133 133.917 25.8761 134.191 25.4121 134.566L27.2975 136.899C27.4365 136.787 27.5974 136.705 27.7699 136.659L26.9892 133.762ZM31.2562 132.625L26.9934 133.761L27.7657 136.66L32.0285 135.524L31.2562 132.625ZM33.1886 128.846C33.7698 130.451 32.8575 132.199 31.2562 132.625L32.0284 135.524C35.3732 134.633 37.1744 131.043 36.0094 127.825L33.1886 128.846ZM31.6893 124.705L33.1886 128.846L36.0094 127.825L34.5102 123.683L31.6893 124.705ZM31.4373 122.931C31.3983 123.533 31.4841 124.137 31.6891 124.704L34.5104 123.684C34.4458 123.505 34.4187 123.315 34.431 123.125L31.4373 122.931ZM31.9158 121.206C31.6392 121.742 31.4763 122.329 31.4373 122.931L34.431 123.125C34.4433 122.936 34.4946 122.751 34.5817 122.582L31.9158 121.206ZM31.9161 121.206L31.9158 121.206L34.5817 122.582L34.5819 122.582L31.9161 121.206ZM39.5935 106.364L31.9167 121.205L34.5813 122.583L42.2581 107.742L39.5935 106.364ZM39.5489 106.925C39.4877 106.739 39.5038 106.537 39.5935 106.364L42.2581 107.742C42.5391 107.199 42.5894 106.566 42.3979 105.985L39.5489 106.925ZM31.4638 82.4141L39.5489 106.925L42.3979 105.985L34.3128 81.4744L31.4638 82.4141ZM30.7339 76.3182C30.5695 78.3782 30.8175 80.4502 31.4635 82.4132L34.3132 81.4754C33.7919 79.8913 33.5917 78.2192 33.7244 76.5569L30.7339 76.3182ZM32.4209 70.4162C31.4718 72.2518 30.8983 74.2583 30.7339 76.3182L33.7244 76.5569C33.857 74.8945 34.3198 73.2753 35.0858 71.794L32.4209 70.4162ZM37.6999 60.2108L32.421 70.4159L35.0856 71.7943L40.3645 61.5892L37.6999 60.2108ZM38.011 61.1886C37.6551 61.0045 37.5158 60.5667 37.6999 60.2108L40.3645 61.5892C40.9417 60.4735 40.5051 59.1011 39.3894 58.524L38.011 61.1886ZM38.9888 60.8775C38.8047 61.2334 38.3669 61.3727 38.011 61.1886L39.3894 58.524C38.2737 57.9469 36.9014 58.3834 36.3242 59.4992L38.9888 60.8775ZM33.7098 71.0827L38.9888 60.8775L36.3242 59.4992L31.0452 69.7044L33.7098 71.0827ZM32.1804 76.4337C32.3294 74.5661 32.8495 72.7468 33.71 71.0825L31.0451 69.7047C30.0014 71.7232 29.3707 73.9298 29.1899 76.195L32.1804 76.4337ZM32.8419 81.9596C32.2562 80.1799 32.0313 78.3013 32.1804 76.4337L29.1899 76.195C29.0091 78.4603 29.2819 80.7388 29.9922 82.8973L32.8419 81.9596ZM32.8424 81.961L32.8422 81.9605L29.9919 82.8964L29.9921 82.8969L32.8424 81.961ZM40.8249 106.161L32.8417 81.9591L29.9927 82.8988L37.9759 107.101L40.8249 106.161ZM33.2053 121.872L40.7327 107.32L38.0681 105.942L30.5407 120.494L33.2053 121.872ZM33.2068 121.869L33.2071 121.868L30.5388 120.497L30.5385 120.498L33.2068 121.869ZM32.8854 123.025C32.9115 122.623 33.0205 122.23 33.2055 121.871L30.5398 120.495C30.1652 121.221 29.9445 122.016 29.8917 122.831L32.8854 123.025ZM33.0538 124.211C32.9166 123.831 32.8593 123.428 32.8854 123.025L29.8917 122.831C29.8388 123.646 29.9549 124.463 30.2326 125.231L33.0538 124.211ZM34.553 128.352L33.0536 124.21L30.2328 125.231L31.7322 129.373L34.553 128.352ZM31.6297 134.027C34.0725 133.377 35.4173 130.739 34.553 128.352L31.7322 129.373C32.0104 130.142 31.5631 130.941 30.8575 131.129L31.6297 134.027ZM27.3652 135.164L31.6297 134.027L30.8575 131.129L26.5929 132.265L27.3652 135.164ZM27.3635 135.164L27.3656 135.163L26.5926 132.265L26.5905 132.265L27.3635 135.164ZM26.3241 135.695C26.631 135.447 26.9863 135.266 27.3672 135.163L26.5869 132.266C25.8023 132.478 25.0706 132.851 24.4387 133.361L26.3241 135.695ZM25.5856 136.602C25.7659 136.251 26.0174 135.942 26.3241 135.695L24.4387 133.361C23.8071 133.871 23.2891 134.508 22.9177 135.23L25.5856 136.602ZM25.583 136.607L25.5835 136.606L22.9198 135.226L22.9193 135.227L25.583 136.607ZM22.8875 141.818L25.5834 136.606L22.9188 135.228L20.2229 140.44L22.8875 141.818ZM22.5679 142.971C22.594 142.568 22.703 142.176 22.888 141.817L20.2223 140.441C19.8477 141.167 19.627 141.962 19.5741 142.777L22.5679 142.971ZM22.7363 144.156C22.5991 143.777 22.5417 143.373 22.5679 142.971L19.5741 142.777C19.5213 143.592 19.6374 144.409 19.9151 145.177L22.7363 144.156ZM24.2355 148.298L22.7361 144.156L19.9153 145.177L21.4146 149.319L24.2355 148.298ZM21.3118 153.973C23.7546 153.323 25.0992 150.685 24.2356 148.298L21.4146 149.319C21.6926 150.087 21.2451 150.886 20.5396 151.074L21.3118 153.973ZM17.0462 155.11L21.312 153.973L20.5394 151.074L16.2735 152.211L17.0462 155.11ZM16.0064 155.64C16.3132 155.393 16.6685 155.212 17.0493 155.109L16.2704 152.212C15.4855 152.423 14.7534 152.796 14.1212 153.307L16.0064 155.64ZM15.2682 156.548C15.4484 156.197 15.6998 155.888 16.0064 155.64L14.1212 153.307C13.4894 153.817 12.9713 154.454 12.6 155.176L15.2682 156.548ZM15.2654 156.553L15.266 156.552L12.6023 155.172L12.6017 155.173L15.2654 156.553ZM12.5703 161.763L15.2658 156.552L12.6012 155.174L9.90563 160.385L12.5703 161.763ZM12.57 161.764L12.5703 161.763L9.90561 160.385L9.90538 160.386L12.57 161.764ZM12.2501 162.917C12.2763 162.514 12.3854 162.121 12.5705 161.763L9.90496 160.386C9.53022 161.112 9.30943 161.907 9.25645 162.722L12.2501 162.917ZM12.4184 164.102C12.2813 163.723 12.224 163.319 12.2501 162.917L9.25645 162.722C9.20348 163.537 9.31945 164.354 9.59711 165.122L12.4184 164.102ZM13.9176 168.243L12.4182 164.102L9.59734 165.123L11.0968 169.265L13.9176 168.243ZM10.9941 173.919C13.4371 173.269 14.7818 170.631 13.9176 168.243L11.0967 169.264C11.3752 170.034 10.9272 170.832 10.2225 171.02L10.9941 173.919ZM6.72988 175.055L10.9946 173.919L10.222 171.02L5.95734 172.157L6.72988 175.055ZM6.7375 175.053L6.73923 175.053L5.94799 172.159L5.94626 172.16L6.7375 175.053ZM5.68854 175.586C5.99536 175.338 6.35062 175.157 6.73149 175.055L5.95226 172.158C5.16746 172.369 4.4355 172.742 3.80336 173.253L5.68854 175.586ZM4.95022 176.494C5.13043 176.143 5.38191 175.834 5.68854 175.586L3.80335 173.253C3.17158 173.763 2.65343 174.4 2.28211 175.122L4.95022 176.494ZM4.95155 176.491L4.95207 176.49L2.28027 175.126L2.27975 175.127L4.95155 176.491ZM3.82643 178.667L4.94804 176.498L2.28326 175.12L1.16166 177.289L3.82643 178.667ZM3.5024 179.891C3.51971 179.464 3.63043 179.046 3.82666 178.666L1.16143 177.289C0.764154 178.058 0.539935 178.905 0.504866 179.77L3.5024 179.891ZM3.72632 181.138C3.56152 180.744 3.48509 180.318 3.5024 179.891L0.504866 179.77C0.4698 180.635 0.624587 181.497 0.958346 182.295L3.72632 181.138ZM8.58467 192.753L3.72615 181.138L0.958515 182.296L5.81704 193.911L8.58467 192.753ZM11.7523 194.437C10.445 194.717 9.11457 194.02 8.58473 192.753L5.81698 193.911C6.89284 196.483 9.63331 197.958 12.3801 197.371L11.7523 194.437ZM24.0114 191.814L11.7523 194.437L12.3801 197.371L24.6392 194.747L24.0114 191.814ZM25.1304 191.294C24.7992 191.548 24.4157 191.726 24.0075 191.815L24.6432 194.746C25.4845 194.564 26.275 194.197 26.9578 193.673L25.1304 191.294ZM25.9228 190.344C25.7321 190.715 25.4615 191.039 25.1304 191.294L26.9578 193.673C27.6402 193.149 28.198 192.48 28.5912 191.715L25.9228 190.344ZM25.918 190.353L25.9175 190.354L28.5965 191.704L28.597 191.703L25.918 190.353ZM62.8358 118.985L25.9252 190.339L28.5898 191.718L65.5004 120.364L62.8358 118.985ZM76.4248 114.457L63.7398 118.237L64.5964 121.112L77.2814 117.333L76.4248 114.457ZM78.3531 153.54V115.895H75.3531V153.54H78.3531ZM84.665 160.01C81.137 160.008 78.3076 157.127 78.353 153.559L75.3532 153.521C75.2869 158.737 79.4419 163.007 84.663 163.01L84.665 160.01ZM110.563 160.027L84.6649 160.01L84.663 163.01L110.561 163.027L110.563 160.027ZM110.128 162.962C110.339 163.026 110.56 163.06 110.787 163.06V160.06C110.858 160.06 110.928 160.07 110.997 160.091L110.128 162.962ZM110.787 163.06H136.804V160.06H110.787V163.06ZM136.804 163.06C136.961 163.06 137.117 163.044 137.267 163.012L136.657 160.075C136.705 160.065 136.755 160.06 136.804 160.06V163.06ZM161.875 160.059L136.963 160.044L136.961 163.044L161.873 163.059L161.875 160.059ZM168.379 153.593C168.331 157.171 165.412 160.062 161.875 160.059L161.873 163.059C167.074 163.063 171.309 158.831 171.379 153.634L168.379 153.593ZM168.379 153.594L168.379 153.605L171.379 153.622L171.379 153.612L168.379 153.594ZM168.379 144.219V153.603H171.379V144.219H168.379ZM169.104 144.945C168.704 144.945 168.379 144.62 168.379 144.219H171.379C171.379 142.963 170.361 141.945 169.104 141.945V144.945ZM169.83 144.219C169.83 144.62 169.505 144.945 169.104 144.945V141.945C167.848 141.945 166.83 142.963 166.83 144.219H169.83ZM169.83 153.598V144.219H166.83V153.598H169.83ZM161.874 161.511C166.214 161.514 169.768 157.978 169.83 153.619L166.83 153.577C166.791 156.315 164.554 158.512 161.877 158.511L161.874 161.511ZM137.577 161.495L161.875 161.511L161.876 158.511L137.579 158.495L137.577 161.495ZM139.078 159.995V127.654H136.078V159.995H139.078ZM139.078 127.654C139.078 126.398 138.06 125.379 136.804 125.379V128.379C136.403 128.379 136.078 128.055 136.078 127.654H139.078ZM136.804 125.379H110.787V128.379H136.804V125.379ZM110.787 125.379C109.531 125.379 108.513 126.398 108.513 127.654H111.513C111.513 128.055 111.188 128.379 110.787 128.379V125.379ZM108.513 127.654V159.977H111.513V127.654H108.513ZM84.6641 161.461L110.012 161.477L110.013 158.477L84.666 158.461L84.6641 161.461ZM76.9021 153.535C76.8437 157.904 80.3158 161.458 84.664 161.461L84.6661 158.461C82.0101 158.46 79.8655 156.293 79.9018 153.575L76.9021 153.535ZM76.902 153.535L76.902 153.545L79.9019 153.565L79.902 153.555L76.902 153.535ZM76.902 115.434V153.545H79.902V115.434H76.902ZM87.9718 111.017L77.9737 113.996L78.8303 116.871L88.8285 113.892L87.9718 111.017ZM96.311 104.086C94.5725 107.447 91.5604 109.948 87.9718 111.017L88.8285 113.892C93.2056 112.588 96.8664 109.542 98.9755 105.465L96.311 104.086ZM101.996 93.0968L96.3109 104.086L98.9756 105.464L104.66 94.4751L101.996 93.0968ZM114.419 93.5717C110.864 93.5983 107.262 93.1953 103.681 92.3281L102.975 95.2438C106.797 96.1694 110.644 96.6 114.441 96.5716L114.419 93.5717ZM119.594 100.759C117.511 99.3619 116.243 97.1923 115.915 94.8625L112.944 95.2807C113.385 98.4114 115.096 101.354 117.922 103.251L119.594 100.759ZM131.355 98.3477C128.745 102.296 123.479 103.367 119.594 100.759L117.922 103.251C123.209 106.799 130.343 105.319 133.858 100.002L131.355 98.3477ZM129.03 86.4685C132.918 89.0787 133.968 94.3963 131.355 98.3476L133.858 100.002C137.367 94.695 135.978 87.5197 130.702 83.9777L129.03 86.4685ZM129.034 86.4711L129.034 86.4712L130.698 83.975L130.698 83.9749L129.034 86.4711ZM117.267 88.8805C119.878 84.9329 125.144 83.8614 129.03 86.4686L130.702 83.9774C125.414 80.4293 118.281 81.9097 114.765 87.2256L117.267 88.8805ZM117.276 88.8681L117.276 88.8679L114.757 87.2382L114.757 87.2383L117.276 88.8681ZM115.831 93.5421C115.851 91.9372 116.317 90.3189 117.268 88.8803L114.765 87.226C113.487 89.1593 112.858 91.342 112.831 93.5045L115.831 93.5421ZM103.721 93.829C107.261 94.6547 110.822 95.0426 114.339 95.0233L114.323 92.0233C111.038 92.0414 107.711 91.6791 104.402 90.9074L103.721 93.829ZM110.017 77.5897L102.729 91.6791L105.393 93.0574L112.682 78.968L110.017 77.5897ZM110.336 76.933C110.236 77.1533 110.129 77.3723 110.017 77.5897L112.682 78.968C112.818 78.705 112.946 78.4399 113.067 78.1729L110.336 76.933ZM111.187 76.1813C111.276 76.1228 111.376 76.0849 111.48 76.0695L111.923 79.0365C112.243 78.9887 112.556 78.8721 112.839 78.6854L111.187 76.1813ZM123.681 67.9377L111.187 76.1813L112.839 78.6854L125.333 70.4418L123.681 67.9377ZM169.172 97.4381L125.345 67.9453L123.67 70.4342L167.497 99.927L169.172 97.4381ZM169.83 98.7633C169.83 98.7881 169.829 98.8126 169.826 98.8369L166.842 98.5282C166.834 98.6055 166.83 98.684 166.83 98.7633H169.83ZM169.83 129.774V98.7633H166.83V129.774H169.83ZM169.104 129.049C169.505 129.049 169.83 129.374 169.83 129.774H166.83C166.83 131.03 167.848 132.049 169.104 132.049V129.049ZM168.379 129.774C168.379 129.374 168.704 129.049 169.104 129.049V132.049C170.361 132.049 171.379 131.03 171.379 129.774H168.379ZM168.379 99.722V129.774H171.379V99.722H168.379ZM174.903 101.295L170.716 98.4776L169.041 100.966L173.228 103.784L174.903 101.295ZM174.903 101.295L174.898 101.292L173.232 103.787L173.237 103.79L174.903 101.295ZM183.789 99.3997C181.811 102.399 177.827 103.231 174.898 101.292L173.242 103.793C177.589 106.671 183.425 105.4 186.293 101.051L183.789 99.3997ZM182.04 90.461C184.969 92.4015 185.767 96.4004 183.789 99.3996L186.293 101.051C189.159 96.7064 188.04 90.8376 183.697 87.9601L182.04 90.461ZM182.037 90.4587L182.039 90.46L183.699 87.961L183.697 87.9596L182.037 90.4587ZM154.103 71.6828L182.03 90.4541L183.704 87.9642L155.777 69.193L154.103 71.6828ZM156.536 62.9566C155.747 65.2915 154.77 67.5583 153.615 69.7346L156.265 71.1412C157.496 68.8216 158.537 66.4057 159.378 63.917L156.536 62.9566ZM128.632 5.88385C152.011 13.8455 164.51 39.3946 156.537 62.956L159.378 63.9176C167.876 38.8068 154.562 11.5452 129.6 3.04402L128.632 5.88385ZM71.8622 34.1173C79.8353 10.5569 105.255 -2.07747 128.632 5.88385L129.6 3.04401C104.633 -5.45825 77.5194 8.04168 69.0205 33.1556L71.8622 34.1173ZM70.5244 38.9095C70.8789 37.3075 71.3238 35.7081 71.8622 34.1173L69.0205 33.1556C68.4473 34.8495 67.9732 36.5535 67.5953 38.2612L70.5244 38.9095ZM65.9743 38.6548L68.3605 39.9123L69.7592 37.2584L67.373 36.0008L65.9743 38.6548ZM47.4164 44.5862C50.9525 37.7497 59.2458 35.1095 65.9745 38.6548L67.3729 36.0007C59.1459 31.666 49.0404 34.9166 44.7517 43.208L47.4164 44.5862ZM46.0858 47.1579L47.4163 44.5864L44.7518 43.2078L43.4213 45.7793L46.0858 47.1579ZM45.7748 46.1801C46.1307 46.3642 46.2699 46.802 46.0858 47.1579L43.4213 45.7793C42.8441 46.895 43.2805 48.2674 44.3962 48.8446L45.7748 46.1801ZM44.797 46.4911C44.9811 46.1352 45.4189 45.996 45.7748 46.1801L44.3962 48.8446C45.5118 49.4218 46.8842 48.9854 47.4615 47.8697L44.797 46.4911ZM46.1275 43.9196L44.797 46.4911L47.4615 47.8697L48.7919 45.2982L46.1275 43.9196ZM66.6508 37.371C59.1976 33.4439 50.0276 36.3792 46.1274 43.9197L48.792 45.298C51.9394 39.213 59.2966 36.8871 65.2523 40.0251L66.6508 37.371ZM69.4377 38.8397L66.6509 37.371L65.2522 40.025L68.0389 41.4937L69.4377 38.8397ZM70.2737 57.1917C69.2272 51.7697 69.1639 46.098 70.2132 40.4402L67.2635 39.8932C66.1444 45.9273 66.2119 51.9774 67.328 57.7603L70.2737 57.1917ZM64.3852 63.8617C65.5569 61.5817 67.3654 59.8669 69.4697 58.8186L68.132 56.1334C65.4693 57.4598 63.1878 59.6283 61.717 62.4904L64.3852 63.8617ZM69.2125 79.5156C63.6339 76.5563 61.4628 69.5486 64.3852 63.8617L61.717 62.4904C58.0566 69.6132 60.7538 78.4245 67.8066 82.1658L69.2125 79.5156ZM84.5885 74.6009C81.6692 80.2812 74.7841 82.4717 69.2126 79.5156L67.8065 82.1657C74.8804 85.9189 83.5863 83.1142 87.2567 75.9722L84.5885 74.6009ZM79.7612 58.9466C85.3399 61.9059 87.5109 68.914 84.5885 74.6009L87.2568 75.9721C90.9171 68.8494 88.22 60.0377 81.167 56.2964L79.7612 58.9466ZM111.56 161.478L136.028 161.494L136.03 158.494L111.562 158.478L111.56 161.478ZM113.061 159.978V128.428H110.061V159.978H113.061ZM111.561 129.928H136.029V126.928H111.561V129.928ZM134.529 128.428V159.994H137.529V128.428H134.529ZM69.7831 40.6621L104.227 58.8147L105.625 56.1607L71.1818 38.0081L69.7831 40.6621ZM70.4876 33.6521C69.8846 35.434 69.395 37.2276 69.0149 39.0247L71.95 39.6454C72.3057 37.9634 72.7642 36.2837 73.3293 34.6138L70.4876 33.6521ZM129.1 4.51021C104.954 -3.71275 78.7151 9.34024 70.4876 33.6521L73.3293 34.6138C81.031 11.8557 105.575 -0.332023 128.133 7.35005L129.1 4.51021ZM157.911 63.4215C166.138 39.1106 153.245 12.7328 129.1 4.51022L128.133 7.35005C150.694 15.0332 162.772 39.6985 155.069 62.4598L157.911 63.4215ZM157.91 63.4257L157.91 63.4253L155.071 62.4559L155.07 62.4562L157.91 63.4257ZM154.975 70.2676C156.133 68.0671 157.115 65.7778 157.911 63.4212L155.069 62.4607C154.323 64.667 153.404 66.8103 152.32 68.8704L154.975 70.2676ZM128.192 54.2666L152.81 70.8139L154.484 68.3241L129.866 51.7767L128.192 54.2666ZM128.192 54.2666L128.197 54.2696L129.861 51.7737L129.857 51.7708L128.192 54.2666ZM121.211 54.2683C123.359 52.8741 126.096 52.8787 128.196 54.2693L129.853 51.7681C126.741 49.7071 122.711 49.7182 119.578 51.7521L121.211 54.2683ZM121.211 54.2689L121.215 54.266L119.574 51.7544L119.57 51.7572L121.211 54.2689ZM109.77 61.8084L121.216 54.2656L119.565 51.7606L108.119 59.3034L109.77 61.8084ZM104.227 58.8147C105.618 59.5476 106.83 60.4881 107.848 61.5791L110.041 59.5327C108.798 58.2005 107.319 57.053 105.625 56.1607L104.227 58.8147ZM113.367 76.4814L124.911 68.8648L123.259 66.3607L111.715 73.9773L113.367 76.4814ZM108.752 62.6548C111.334 66.065 112.256 70.5868 111.094 74.8336L113.988 75.6251C115.398 70.4694 114.282 64.9878 111.144 60.8439L108.752 62.6548ZM120.413 53.0568L109.123 60.4969L110.774 63.0018L122.063 55.5618L120.413 53.0568ZM120.425 53.0487L120.423 53.05L122.053 55.5686L122.055 55.5673L120.425 53.0487ZM128.995 53.0577C126.407 51.3452 123.047 51.348 120.424 53.0496L122.056 55.5664C123.694 54.5041 125.763 54.5163 127.339 55.5596L128.995 53.0577ZM128.998 53.0597L128.996 53.0582L127.338 55.5591L127.341 55.5605L128.998 53.0597ZM182.844 89.2527L129.006 53.0652L127.332 55.555L181.17 91.7425L182.844 89.2527ZM182.844 89.2525L182.839 89.2496L181.175 91.7457L181.18 91.7487L182.844 89.2525ZM185 100.199C187.409 96.5471 186.454 91.6428 182.84 89.2499L181.184 91.7513C183.385 93.2089 184.015 96.2436 182.496 98.5468L185 100.199ZM185.219 98.5462L184.574 98.1206L182.922 100.625L183.568 101.05L185.219 98.5462ZM182.922 100.625L183.568 101.051L185.219 98.5462L184.574 98.1206L182.922 100.625ZM174.1 102.504C177.714 104.894 182.592 103.85 185 100.199L182.496 98.5469C180.979 100.847 177.953 101.455 175.755 100.001L174.1 102.504ZM174.099 102.503L174.101 102.504L175.754 100.001L175.752 99.9991L174.099 102.503ZM124.107 68.8611L174.088 102.495L175.763 100.006L125.781 66.3722L124.107 68.8611ZM124.911 68.8648C124.667 69.026 124.349 69.0246 124.107 68.8611L125.781 66.3722C125.02 65.8598 124.025 65.8552 123.259 66.3607L124.911 68.8648ZM120.457 99.4733C118.801 98.3625 117.772 96.6489 117.471 94.7931L114.51 95.2734C114.937 97.9069 116.405 100.367 118.785 101.964L120.457 99.4733ZM130.063 97.4934C127.921 100.734 123.619 101.595 120.457 99.4733L118.785 101.964C123.348 105.027 129.518 103.758 132.566 99.148L130.063 97.4934ZM130.98 91.6525C131.517 93.5675 131.249 95.7006 130.063 97.4934L132.566 99.148C134.251 96.5992 134.631 93.5614 133.868 90.8425L130.98 91.6525ZM116.053 96.5319C121.95 96.2858 127.699 94.9364 133.022 92.6232L131.826 89.8718C126.835 92.0405 121.449 93.3041 115.928 93.5345L116.053 96.5319ZM131.272 88.4237C126.422 90.5402 121.186 91.7704 115.82 91.9888L115.942 94.9863C121.687 94.7525 127.288 93.4358 132.472 91.1733L131.272 88.4237ZM128.167 87.7546C129.212 88.4562 130.005 89.3953 130.524 90.4576L133.219 89.1394C132.475 87.6187 131.336 86.269 129.839 85.2638L128.167 87.7546ZM118.559 89.7349C120.702 86.4945 125.005 85.6329 128.167 87.7548L129.839 85.2636C125.275 82.2015 119.106 83.4703 116.057 88.08L118.559 89.7349ZM117.38 93.516C117.405 92.215 117.787 90.9039 118.56 89.7346L116.057 88.0803C114.961 89.7385 114.416 91.6066 114.381 93.459L117.38 93.516ZM19.0039 181.759C20.119 182.337 21.4918 181.902 22.0702 180.787L19.4072 179.406C19.5917 179.05 20.0296 178.911 20.3853 179.096L19.0039 181.759ZM18.0322 178.693C17.4538 179.808 17.8889 181.18 19.0039 181.759L20.3853 179.096C20.741 179.28 20.8798 179.718 20.6953 180.074L18.0322 178.693ZM48.2045 120.526L18.0322 178.693L20.6953 180.074L50.8676 121.908L48.2045 120.526ZM51.2708 119.555C50.1558 118.976 48.7829 119.411 48.2045 120.526L50.8676 121.908C50.6831 122.264 50.2451 122.402 49.8894 122.218L51.2708 119.555ZM52.2425 122.621C52.8209 121.506 52.3859 120.133 51.2708 119.555L49.8894 122.218C49.5337 122.033 49.3949 121.595 49.5794 121.24L52.2425 122.621ZM22.0702 180.787L52.2425 122.621L49.5794 121.24L19.4071 179.406L22.0702 180.787Z" fill="#CAD0D2"/>
</svg>
