<svg width="18" height="19" viewBox="0 0 18 19" fill="none" xmlns="http://www.w3.org/2000/svg">
<path fill-rule="evenodd" clip-rule="evenodd" d="M17.9742 9.52758C17.9742 8.88935 17.9169 8.27566 17.8106 7.68652H9.3334V11.1682H14.1775C13.9688 12.2933 13.3347 13.2465 12.3814 13.8848V16.1431H15.2903C16.9923 14.5762 17.9742 12.2687 17.9742 9.52758Z" fill="#4285F4"/>
<path fill-rule="evenodd" clip-rule="evenodd" d="M9.33473 18.3228C11.765 18.3228 13.8024 17.5169 15.2916 16.1422L12.3827 13.8838C11.5768 14.4239 10.5457 14.743 9.33473 14.743C6.99042 14.743 5.00614 13.1597 4.29834 11.0322H1.29124V13.3642C2.77229 16.3058 5.81621 18.3228 9.33473 18.3228Z" fill="#34A853"/>
<path fill-rule="evenodd" clip-rule="evenodd" d="M4.29733 11.0335C4.11732 10.4935 4.01503 9.91664 4.01503 9.3234C4.01503 8.73017 4.11732 8.15331 4.29733 7.61326V5.28125H1.29023C0.68063 6.49635 0.33287 7.87101 0.33287 9.3234C0.33287 10.7758 0.68063 12.1505 1.29023 13.3656L4.29733 11.0335Z" fill="#FBBC05"/>
<path fill-rule="evenodd" clip-rule="evenodd" d="M9.33471 3.90308C10.6562 3.90308 11.8427 4.35721 12.7755 5.24911L15.3571 2.66753C13.7983 1.21513 11.7608 0.323242 9.33471 0.323242C5.8162 0.323242 2.77228 2.34023 1.29123 5.28184L4.29833 7.61385C5.00612 5.4864 6.9904 3.90308 9.33471 3.90308Z" fill="#EA4335"/>
</svg>
