<svg width="61" height="43" viewBox="0 0 61 43" fill="none" xmlns="http://www.w3.org/2000/svg">
<path fill-rule="evenodd" clip-rule="evenodd" d="M60.3678 0.86004L60.1924 1.07823L59.7093 1.46395C59.7093 1.75617 59.7872 1.69383 59.5067 1.67045L59.2651 1.79903L59.0275 1.9315L58.821 2.14189L27.7175 28.1024C27.246 28.5232 27.1175 28.5855 26.6928 28.9401L25.7109 29.9492L45.1336 33.5921C45.7336 32.9298 48.4687 26.7971 49.0765 25.4607L56.8105 9.20184C57.4534 7.81089 58.1041 6.49786 58.7236 5.15756C59.1405 4.25364 60.1067 1.94708 60.6483 1.2107C60.6405 0.844456 60.5275 0.871729 60.8314 0.949653L60.7925 0.766531L60.621 0.739258L60.3717 0.863937L60.3678 0.86004Z" fill="white"/>
<path fill-rule="evenodd" clip-rule="evenodd" d="M59.7134 0.386454L59.5225 0.3397L59.2614 0.491652L59.0627 0.48386C59.2108 0.838415 59.203 0.698152 58.7861 0.62802L0.927299 24.7417C0.903922 24.7495 0.537678 24.9092 0.522093 24.9209C-0.00779242 25.2248 0.284424 25.0222 0 25.3183C2.84424 25.5794 10.4769 27.0054 14.1043 27.621C16.5511 28.0379 16.3485 27.5664 18.0901 26.4911L58.8523 1.05271L59.1601 0.96699C59.1328 0.581265 59.0549 0.666982 59.4445 0.756595L59.5186 0.737114L59.6978 0.48386L59.7484 0.479964L59.9511 0.0942383L59.9783 0.179955L59.7134 0.374766V0.386454Z" fill="white"/>
<path fill-rule="evenodd" clip-rule="evenodd" d="M59.028 1.23503L43.3146 11.3457C41.5418 12.5535 39.8158 13.4769 38.1053 14.6887C34.1117 17.5212 27.0596 21.6668 22.4854 24.7487L17.2021 28.1111L21.6828 42.3128C22.2438 41.4595 23.2997 35.9542 23.6387 34.4464C24.9907 28.4189 23.9504 30.6787 29.7869 25.7227L36.4378 20.2797C38.5144 18.3316 42.1184 15.7718 43.8912 14.1588L58.9306 1.67531C59.1098 1.51556 59.0514 1.55452 59.215 1.42595C59.1994 1.14152 59.1371 1.21555 59.4332 1.24672L59.3709 1.04412L59.1917 1.01685L59.0241 1.23893L59.028 1.23503Z" fill="white"/>
<path fill-rule="evenodd" clip-rule="evenodd" d="M22.3174 42.2886C23.3616 40.9755 23.8837 40.7379 24.8188 39.7248C26.4279 37.9754 29.315 34.4922 30.9748 32.8597C31.415 32.4272 31.7073 31.9987 32.0735 31.535L25.3175 30.3389L22.3174 42.2886Z" fill="white"/>
<path fill-rule="evenodd" clip-rule="evenodd" d="M59.9511 0.101302L59.7485 0.487027L60.3641 0.857167L60.6135 0.732488L60.7849 0.759762C61.1005 0.794828 60.9758 0.837686 60.9758 0.444168C60.1693 0.549366 60.855 0.440272 60.6135 0.732488C60.5901 0.697422 60.5589 0.592225 60.5511 0.623394C60.5433 0.650668 60.5083 0.537678 60.4966 0.525989C60.3407 0.358452 60.5161 0.335074 59.9433 0.455857C60.1888 0.245461 60.2083 0.237669 60.4888 0C59.8537 0.0506508 60.3368 -0.0389621 59.9472 0.0974054L59.9511 0.101302ZM60.8239 0.94678C60.52 0.868856 60.6368 0.841582 60.6407 1.20783C60.9524 1.20783 60.8706 1.27796 60.8239 0.94678ZM59.3745 1.03639L59.4368 1.239C59.1407 1.20783 59.203 1.1338 59.2186 1.41822C59.5264 1.44939 59.4719 1.53121 59.4368 1.239C60.5277 0.94678 59.8498 1.26627 60.0446 0.65846C58.6303 0.77145 59.6745 0.635083 59.3706 1.03639H59.3745ZM59.2615 1.80005L59.0238 1.93252C58.7394 1.91304 58.8173 1.8507 58.8173 2.14292L59.0238 1.93252L59.2615 1.80005L59.503 1.67148C59.7836 1.69485 59.7056 1.75719 59.7056 1.46498C59.3862 1.4416 59.4446 1.36368 59.503 1.67148L59.2615 1.80005ZM59.1641 0.970157C59.5303 1.0325 59.4485 1.11821 59.4485 0.759762C59.0589 0.670149 59.1368 0.584432 59.1641 0.970157L58.8563 1.05587C59.1329 1.00522 59.0745 0.950676 59.0277 1.2351L59.1952 1.01302L59.1641 0.974054V0.970157ZM58.7861 0.631187C59.1991 0.701319 59.2069 0.845479 59.0628 0.487027L58.7861 0.631187ZM59.7134 0.385725L59.9784 0.190915C59.655 0.206499 59.7134 0.109094 59.7134 0.385725Z" fill="white"/>
</svg>
