<svg width="40" height="40" viewBox="0 0 40 95" fill="none" xmlns="http://www.w3.org/2000/svg">
<path fill-rule="evenodd" clip-rule="evenodd" d="M16.8055 66.963L16.3759 65.1139L13.5622 64.3599C13.5285 64.2925 13.4738 64.1704 13.4359 64.0946C13.3179 63.8292 13.1579 63.3996 13.1031 63.2438C12.8251 62.4729 12.7998 62.3592 12.5513 61.4326C9.83879 56.2981 8.57096 42.411 8.61729 35.6423C8.66363 28.8272 10.0747 22.6903 12.2649 16.5407C12.8504 14.9022 13.8149 13.1921 14.2825 11.739C15.4745 13.0573 17.0329 14.7337 20.0867 14.6284C21.3419 14.5863 22.3654 14.2283 23.3973 13.6175C24.9263 12.7161 24.4588 12.5013 25.7013 11.9074C26.43 14.7295 28.3381 17.9264 29.7112 23.9707C32.3269 35.4654 30.92 56.9468 25.8698 64.7685C24.1934 65.0086 24.5809 64.5621 23.1825 65.4003C22.7824 70.5559 24.9937 68.2898 25.6255 71.9206C26.1225 74.7763 24.484 76.4611 23.9112 78.9504C22.8245 77.5352 23.0014 76.3095 21.5777 79.3464C20.8701 80.8585 20.6932 82.3454 20.6216 84.0512C19.4759 83.769 15.5461 79.0305 14.6911 76.8444C12.783 71.9458 16.7592 70.2737 16.8055 66.9672V66.963ZM31.6824 76.2632C32.15 76.5075 32.1247 76.3643 32.5206 76.6212L33.0218 75.7872L39.3357 60.0342C41.3027 54.0657 38.9355 52.7221 31.7793 47.3012C32.0615 29.3663 33.481 26.38 25.5834 9.22015C24.7115 7.32895 21.1944 0.686562 19.695 0C17.5258 3.23906 15.8367 5.46301 14.1603 9.19909C12.6314 12.6108 10.9213 16.0521 9.80509 20.1251C6.84824 30.9458 7.38317 36.3415 8.08658 47.8445C5.7868 49.1798 3.53336 50.7719 1.87803 52.8147C-0.640766 55.919 -0.366984 56.5256 1.17883 60.9524C2.21921 63.9303 6.71345 75.564 8.02761 76.9202L11.8437 63.5428C12.8083 65.3877 13.2042 66.7945 14.8343 67.7338C13.1452 70.7159 5.01179 78.4745 13.2547 88.5876L13.9919 85.3612C14.889 86.2962 14.6995 86.3805 15.247 87.9305C16.1105 90.3777 18.0396 93.4314 20.0909 94.4929L21.7167 88.3307C22.5212 86.2752 23.3005 84.8852 24.9179 83.8111L25.9962 85.9551C27.0618 82.6233 29.5638 79.8982 29.5174 76.2505C29.4669 72.207 26.8091 69.427 24.8547 67.8054C27.8789 64.6042 26.152 66.1416 27.4072 64.2589C27.4704 64.1662 27.5336 64.0735 27.6009 63.9851L28.3633 63.1764L31.6782 76.259L31.6824 76.2632Z" fill="#C40A0D"/>
<path fill-rule="evenodd" clip-rule="evenodd" d="M17.1426 58.164L17.3742 66.8492C17.3279 70.5979 18.8485 73.1631 19.2275 76.2589L20.011 77.1224L20.588 76.2505C21.561 70.3579 22.892 68.0455 22.8036 61.3652C22.7699 58.6863 22.7909 48.9818 19.6993 47.6213C17.6817 49.8452 17.2563 54.6512 17.1468 58.1598L17.1426 58.164Z" fill="#C40A0D"/>
<path fill-rule="evenodd" clip-rule="evenodd" d="M18.486 24.2445C24.9978 22.3238 27.306 32.0241 21.4724 33.7679C14.9058 35.7307 12.0964 26.1273 18.486 24.2445ZM17.7237 22.6228C9.04686 25.685 13.5116 38.3422 22.2811 35.4232C30.2503 32.7696 26.4763 19.5312 17.7237 22.6228Z" fill="#C40A0D"/>
<path fill-rule="evenodd" clip-rule="evenodd" d="M12.5557 61.4284C12.8042 62.355 12.8294 62.4688 13.1074 63.2396C13.1622 63.3954 13.3223 63.825 13.4402 64.0904C13.4739 64.1662 13.5329 64.2884 13.5666 64.3558L16.3802 65.1097L16.8098 66.9588L17.3742 66.8451L17.1426 58.1599L16.6371 65.076C15.5125 64.4442 15.3904 64.6717 13.8445 64.8444C13.6761 63.5513 13.4276 62.6288 12.5599 61.4284H12.5557Z" fill="#C40A0D"/>
<path fill-rule="evenodd" clip-rule="evenodd" d="M20.5836 76.2505L20.0066 77.1224L19.2231 76.259C19.9897 78.5798 19.2442 76.9118 20.2635 77.7079C20.6047 76.0694 19.8507 78.1333 20.5794 76.2548L20.5836 76.2505Z" fill="#C40A0D"/>
<path fill-rule="evenodd" clip-rule="evenodd" d="M31.6865 76.259L32.0193 77.3415C32.2425 77.2025 32.3815 76.9919 32.411 77.0551L33.026 75.7872L32.5247 76.6212C32.1288 76.3643 32.1541 76.5075 31.6865 76.2632V76.259Z" fill="#C40A0D"/>
</svg>
