<svg width="22" height="22" viewBox="0 0 22 22" fill="none" xmlns="http://www.w3.org/2000/svg">
<path d="M13.9053 7.82424H8.09488C8.06175 7.82385 8.02888 7.83004 7.99816 7.84245C7.96744 7.85486 7.93949 7.87324 7.91592 7.89653C7.89236 7.91982 7.87366 7.94756 7.86089 7.97813C7.84812 8.00871 7.84155 8.04151 7.84155 8.07464V13.9481C7.84155 14.0865 7.95504 14.2 8.09488 14.2H13.9053C14.0444 14.2 14.1572 14.0872 14.1572 13.9481V8.07464C14.1572 8.04163 14.1507 8.00895 14.138 7.97847C14.1253 7.948 14.1067 7.92033 14.0833 7.89706C14.0599 7.87379 14.0321 7.85537 14.0016 7.84288C13.971 7.83038 13.9383 7.82404 13.9053 7.82424Z" fill="#DE5353"/>
<path d="M11.0007 -0.000976562C4.92598 -0.000976562 0 4.92362 0 10.9999C0 17.0762 4.92598 22.0008 11.0007 22.0008C17.0762 22.0008 22 17.0762 22 10.9999C22 4.92362 17.0762 -0.000976562 11.0007 -0.000976562ZM11.0007 20.1631C5.94003 20.1631 1.83699 16.06 1.83699 10.9999C1.83699 5.93768 5.94003 1.83531 11.0007 1.83531C16.0622 1.83531 20.163 5.93768 20.163 10.9999C20.163 16.06 16.0622 20.1631 11.0007 20.1631Z" fill="#DE5353"/>
</svg>
