<svg fill="none" height="24" viewBox="0 0 24 24" width="24" xmlns="http://www.w3.org/2000/svg"><g fill="#0f0f0f"><path d="m12 9c-.5523 0-1 .44771-1 1v5.5856l-1.29289-1.2928c-.39051-.3904-1.02368-.3904-1.41419 0-.39056.3906-.39056 1.0237 0 1.4143l2.99908 2.9992c.3903.3902 1.0229.3905 1.4135.0007l2.9995-2.9933c.3905-.3904.3905-1.0237 0-1.4141-.3905-.3906-1.0236-.3906-1.4142 0l-1.2908 1.2907v-5.5903c0-.55229-.4477-1-1-1z"/><path clip-rule="evenodd" d="m21 1c1.6569 0 3 1.34315 3 3v4c0 1.65685-1.3431 3-3 3h-2v9c0 1.6569-1.3431 3-3 3h-8c-1.65685 0-3-1.3431-3-3v-9h-2c-1.65685 0-3-1.34315-3-3v-4c0-1.65685 1.34315-3 3-3zm1 7c0 .55228-.4477 1-1 1h-2v-2h1c.5523 0 1-.44771 1-1 0-.55228-.4477-1-1-1h-16c-.55228 0-1 .44772-1 1 0 .55229.44772 1 1 1h1v2h-2c-.55228 0-1-.44772-1-1v-4c0-.55228.44772-1 1-1h18c.5523 0 1 .44772 1 1zm-15-1v13c0 .5523.44772 1 1 1h8c.5523 0 1-.4477 1-1v-13z" fill-rule="evenodd"/></g></svg>